<svg width="22" height="21" viewBox="0 0 22 21" fill="none" xmlns="http://www.w3.org/2000/svg">
<path d="M17.4501 0.000130654H4.5499C3.5245 0.000562263 2.54113 0.407974 1.81607 1.13326C1.09101 1.85832 0.683382 2.84169 0.68294 3.86709V16.7673C0.679487 17.2109 0.758036 17.6516 0.915129 18.0666C0.912971 18.0836 0.918582 18.1007 0.93045 18.113C0.944476 18.162 0.965407 18.209 0.992382 18.2522C1.28478 18.9556 1.77831 19.557 2.41123 19.9809C3.04436 20.4045 3.78842 20.6319 4.54993 20.6343H15.4084C15.3147 20.3872 15.2675 20.125 15.2692 19.8609V19.0875H4.54996C3.76751 19.0927 3.03726 18.6954 2.61648 18.0357L11.6188 10.7968V10.7966C12.0281 10.4593 12.5421 10.2746 13.0728 10.2746C13.6034 10.2746 14.1174 10.4593 14.5267 10.7966L16.0426 12.0186C16.3126 11.8917 16.5989 11.8032 16.8933 11.7557C17.1179 11.6819 17.3529 11.6455 17.5894 11.6474C17.8309 11.6444 18.0713 11.6809 18.3009 11.7557C19.1509 11.8984 19.9234 12.3364 20.4819 12.9931L21.3172 13.9984V3.86696C21.3167 2.84156 20.9091 1.85819 20.184 1.13313C19.459 0.407854 18.4756 0.000441939 17.4502 0L17.4501 0.000130654ZM6.88555 8.98695H6.88533C6.22696 8.98501 5.5962 8.72132 5.13205 8.25433C4.66791 7.78735 4.40827 7.1549 4.41026 6.49652C4.4122 5.83814 4.67589 5.20738 5.14288 4.74324C5.61006 4.27908 6.24231 4.01945 6.90069 4.02144C7.55929 4.0236 8.19005 4.28708 8.65397 4.75429C9.11814 5.22126 9.37776 5.85372 9.37577 6.5121C9.37296 7.17026 9.10905 7.80057 8.64232 8.26455C8.17535 8.7285 7.54349 8.9885 6.88533 8.98723L6.88555 8.98695ZM21.137 16.1917H21.1368C21.4108 16.5194 21.3672 17.0076 21.0392 17.2816C20.7114 17.5556 20.2235 17.5118 19.9495 17.1841L18.3664 15.2907V19.8644C18.3664 20.2917 18.0201 20.6378 17.593 20.6378C17.166 20.6378 16.8196 20.2917 16.8196 19.8644V15.2892L15.2351 17.1843C14.961 17.5121 14.4731 17.5557 14.1453 17.2817C13.8173 17.0076 13.7737 16.5197 14.0478 16.1919L15.8936 13.9841C16.3269 13.5025 16.9443 13.2274 17.5923 13.2274C18.2402 13.2274 18.8575 13.5025 19.2908 13.9841L21.137 16.1917ZM20.5436 19.0084H20.6055H20.6051C20.4059 19.2848 20.172 19.5342 19.9091 19.7509V18.9156C20.1148 18.9777 20.3284 19.009 20.5433 19.0086L20.5436 19.0084Z" fill="black"/>
</svg>
