<svg width="24" height="25" viewBox="0 0 24 25" fill="none" xmlns="http://www.w3.org/2000/svg">
<path fill-rule="evenodd" clip-rule="evenodd" d="M9.87657 15.7061C6.03257 15.7061 2.74957 16.2871 2.74957 18.6151C2.74957 20.9431 6.01257 21.5451 9.87657 21.5451C13.7216 21.5451 17.0036 20.9631 17.0036 18.6361C17.0036 16.3091 13.7416 15.7061 9.87657 15.7061Z" stroke="#130F26" stroke-width="1.5" stroke-linecap="round" stroke-linejoin="round"/>
<path fill-rule="evenodd" clip-rule="evenodd" d="M9.8766 12.386C12.3996 12.386 14.4446 10.341 14.4446 7.818C14.4446 5.295 12.3996 3.25 9.8766 3.25C7.3546 3.25 5.3096 5.295 5.3096 7.818C5.3006 10.332 7.3306 12.377 9.8456 12.386H9.8766Z" stroke="#130F26" stroke-width="1.5" stroke-linecap="round" stroke-linejoin="round"/>
<path d="M19.2037 9.16895V13.1789" stroke="#130F26" stroke-width="1.5" stroke-linecap="round" stroke-linejoin="round"/>
<path d="M21.2495 11.1738H17.1595" stroke="#130F26" stroke-width="1.5" stroke-linecap="round" stroke-linejoin="round"/>
</svg>
