<svg width="21" height="21" viewBox="0 0 21 21" fill="none" xmlns="http://www.w3.org/2000/svg">
<path d="M16.9501 0.000130654H4.04993C3.02453 0.000562263 2.04116 0.407974 1.3161 1.13326C0.591045 1.85832 0.183412 2.84169 0.18297 3.86709V16.7673C0.179518 17.2109 0.258067 17.6516 0.415159 18.0666C0.413001 18.0836 0.418612 18.1007 0.43048 18.113C0.444507 18.162 0.465438 18.209 0.492412 18.2522C0.78481 18.9556 1.27835 19.557 1.91126 19.9809C2.54439 20.4045 3.28845 20.6319 4.04996 20.6343H14.9084C14.8147 20.3872 14.7675 20.125 14.7692 19.8609V19.0875H4.04999C3.26754 19.0927 2.53729 18.6954 2.11651 18.0357L11.1188 10.7968V10.7966C11.5282 10.4593 12.0422 10.2746 12.5728 10.2746C13.1034 10.2746 13.6174 10.4593 14.0268 10.7966L15.5427 12.0186C15.8126 11.8917 16.099 11.8032 16.3933 11.7557C16.6179 11.6819 16.8529 11.6455 17.0895 11.6474C17.3309 11.6444 17.5713 11.6809 17.8009 11.7557C18.6509 11.8984 19.4234 12.3364 19.9819 12.9931L20.8172 13.9984V3.86696C20.8168 2.84156 20.4091 1.85819 19.6841 1.13313C18.959 0.407854 17.9756 0.000441939 16.9502 0L16.9501 0.000130654ZM6.38558 8.98695H6.38536C5.72699 8.98501 5.09623 8.72132 4.63208 8.25433C4.16794 7.78735 3.9083 7.1549 3.91029 6.49652C3.91223 5.83814 4.17593 5.20738 4.64291 4.74324C5.1101 4.27908 5.74234 4.01945 6.40072 4.02144C7.05932 4.0236 7.69008 4.28708 8.154 4.75429C8.61817 5.22126 8.87779 5.85372 8.8758 6.5121C8.87299 7.17026 8.60909 7.80057 8.14235 8.26455C7.67538 8.7285 7.04352 8.9885 6.38536 8.98723L6.38558 8.98695ZM20.637 16.1917H20.6368C20.9108 16.5194 20.8673 17.0076 20.5392 17.2816C20.2115 17.5556 19.7235 17.5118 19.4495 17.1841L17.8665 15.2907V19.8644C17.8665 20.2917 17.5201 20.6378 17.0931 20.6378C16.666 20.6378 16.3197 20.2917 16.3197 19.8644V15.2892L14.7351 17.1843C14.4611 17.5121 13.9731 17.5557 13.6453 17.2817C13.3173 17.0076 13.2737 16.5197 13.5478 16.1919L15.3937 13.9841C15.827 13.5025 16.4444 13.2274 17.0924 13.2274C17.7402 13.2274 18.3575 13.5025 18.7909 13.9841L20.637 16.1917ZM20.0436 19.0084H20.1055H20.1051C19.9059 19.2848 19.672 19.5342 19.4091 19.7509V18.9156C19.6148 18.9777 19.8284 19.009 20.0433 19.0086L20.0436 19.0084Z" fill="black"/>
</svg>
