<svg width="28" height="28" viewBox="0 0 28 28" fill="none" xmlns="http://www.w3.org/2000/svg">
<path d="M15.0123 13.2532C15.0128 13.2548 15.0136 13.2563 15.0148 13.2575C15.016 13.2587 15.0175 13.2595 15.0192 13.2599C15.0208 13.2603 15.0225 13.2602 15.0241 13.2596C15.0257 13.2591 15.0271 13.2581 15.0282 13.2569C15.4784 12.6577 15.9697 12.0946 16.5021 11.5675C16.5142 11.5556 16.5236 11.5413 16.5297 11.5255C16.5358 11.5097 16.5384 11.4928 16.5375 11.4759C16.4166 9.56609 17.3263 7.97683 19.1262 7.20083C21.8346 6.03285 25.3294 6.56586 27.4852 8.61364C27.68 8.79863 27.8882 9.02576 27.9621 9.27547C28.0653 9.62593 27.9535 10.0313 27.6794 10.2749C27.6179 10.3295 27.4775 10.4082 27.2581 10.5112C26.1292 11.0412 25.2995 12.0248 24.7158 13.1024C24.553 13.4028 24.4268 13.6132 24.3373 13.7337C23.0319 15.489 20.2264 16.9104 18.1927 15.4005C18.1752 15.3875 18.1732 15.3726 18.1866 15.3559C18.5391 14.9212 18.9146 14.5105 19.3131 14.1238C19.5101 13.9329 19.635 13.7842 19.6879 13.6775C20.0738 12.9064 19.2428 11.9833 18.418 12.3661C18.3993 12.3746 18.3844 12.3874 18.3734 12.4045C18.302 12.5157 18.2312 12.6176 18.131 12.711C17.0027 13.7679 15.9703 15.0671 15.4251 16.5276C15.397 16.6033 15.3976 16.6656 15.3988 16.7425C15.4127 18.0763 15.3319 19.4045 15.1564 20.7269C15.1536 20.7497 15.1636 20.7617 15.1864 20.7629C18.6958 20.9998 21.7125 23.127 23.0704 26.3666C23.1742 26.6144 23.2252 26.8114 23.2236 26.9576C23.2193 27.3526 22.9464 27.7287 22.5691 27.8575C22.4641 27.8933 22.2962 27.9113 22.0654 27.9113C17.1688 27.9125 12.272 27.9127 7.37499 27.9119C7.05995 27.9119 6.84829 27.8944 6.74002 27.8594C6.35171 27.7354 6.06964 27.3361 6.07636 26.9246C6.07839 26.7984 6.12174 26.6319 6.2064 26.4252C7.41285 23.4872 10.0223 21.4132 13.1398 20.8722C13.1462 20.8712 13.1521 20.8681 13.1567 20.8635C13.1613 20.8589 13.1644 20.853 13.1654 20.8466C13.4263 19.1802 13.4998 17.5069 13.3858 15.8267C13.2662 14.0567 12.9017 12.313 12.1849 10.6846C12.1763 10.6651 12.1617 10.6571 12.1409 10.6608C12.1316 10.6624 12.1226 10.6663 12.1141 10.6724C12.0864 10.6924 12.0658 10.6864 12.0524 10.6547C11.2892 8.79741 10.1347 7.39254 8.42331 6.3601C8.07896 6.15251 7.88724 5.97362 7.82924 5.59386C7.82731 5.58233 7.823 5.57133 7.81659 5.56155C7.81018 5.55178 7.80181 5.54344 7.792 5.53708C7.62267 5.42922 7.45131 5.32481 7.27792 5.22387C6.93112 5.02117 6.43597 5.12374 6.14596 5.4052C5.80771 5.73307 5.76986 6.27462 6.03972 6.65561C6.23571 6.93218 6.68263 7.13916 6.94761 7.32294C8.56129 8.44085 9.72377 10.0093 10.4399 11.8312C10.4424 11.8379 10.4421 11.8452 10.4393 11.8517C10.4365 11.8582 10.4312 11.8633 10.4247 11.866C9.17102 12.3899 7.96661 12.3003 6.81146 11.5974C5.11779 10.5668 4.11833 8.77726 3.2831 7.05002C3.09708 6.66578 2.82986 6.22028 2.48144 5.71353C1.78216 4.69717 1.02122 3.72925 0.198603 2.80976C-0.101787 2.47396 -0.0407319 1.87623 0.243173 1.56668C0.348595 1.4519 0.551093 1.33081 0.850669 1.20341C4.83328 -0.489646 9.76773 -0.685022 13.116 2.51425C13.6862 3.05886 14.0607 3.72355 14.2394 4.50831C14.566 5.94554 14.1191 7.48168 13.4274 8.7388C13.4212 8.75003 13.418 8.76263 13.418 8.77543C13.418 8.78823 13.4212 8.80083 13.4274 8.81206C14.1942 10.2062 14.7225 11.6865 15.0123 13.2532Z" fill="#007F02"/>
</svg>
