<svg width="18" height="22" viewBox="0 0 18 22" fill="none" xmlns="http://www.w3.org/2000/svg">
<path d="M15.082 11.5882C15.1018 13.654 16.3027 14.83 17.1601 15.4078C17.616 15.715 17.8892 16.2573 17.6767 16.7546C17.4352 17.32 17.0531 18.0906 16.5 18.8743C15.5909 20.1625 14.6474 21.4459 13.1611 21.4725C11.7007 21.4986 11.2311 20.6329 9.56148 20.6329C7.89233 20.6329 7.37058 21.4459 5.98814 21.4986C4.55352 21.5513 3.46102 20.1057 2.54445 18.8222C0.671457 16.1968 -0.759896 11.4036 1.16205 8.16806C2.11683 6.56129 3.8231 5.54382 5.6751 5.51772C7.08386 5.49167 8.41353 6.43661 9.27477 6.43661C10.1355 6.43661 11.7513 5.30024 13.45 5.46713C14.0339 5.49069 15.484 5.6633 16.6937 6.73106C17.1531 7.13656 16.9895 7.82571 16.5464 8.24795C15.8725 8.89014 15.0673 9.99185 15.082 11.5882ZM12.3374 3.73024C12.8961 3.07452 13.3208 2.23019 13.4523 1.33807C13.5333 0.787978 13.0199 0.365971 12.4754 0.539514C11.648 0.803247 10.8176 1.32285 10.2589 1.95661C9.71828 2.56266 9.22909 3.44753 9.10478 4.37397C9.03836 4.86893 9.47613 5.27097 9.97944 5.16605C10.8969 4.97478 11.7583 4.41024 12.3374 3.73024Z" fill="white"/>
</svg>
