<svg width="38" height="33" viewBox="0 0 38 33" fill="none" xmlns="http://www.w3.org/2000/svg">
<g style="mix-blend-mode:multiply">
<path d="M35.8005 24.53H1.29946C1.04687 24.53 0.799762 24.6036 0.588352 24.7419C0.376942 24.8801 0.210399 25.0769 0.109094 25.3083C0.00778901 25.5397 -0.0238861 25.7956 0.0179432 26.0447C0.0597724 26.2938 0.173293 26.5253 0.344618 26.7109L5.74235 32.5584C5.86403 32.6903 6.01168 32.7955 6.17602 32.8674C6.34035 32.9394 6.5178 32.9765 6.6972 32.9765H34.9009C35.2113 32.9765 35.5115 32.8654 35.7471 32.6633C35.9826 32.4612 36.1381 32.1814 36.1853 31.8746L37.0849 26.0271C37.1134 25.8419 37.1015 25.6527 37.05 25.4726C36.9986 25.2924 36.9088 25.1256 36.7868 24.9834C36.6648 24.8412 36.5135 24.727 36.3433 24.6488C36.173 24.5705 35.9879 24.53 35.8005 24.53Z" fill="#4D479B"/>
</g>
<g style="mix-blend-mode:multiply">
<path d="M34.8684 21.7673C34.868 21.2504 34.6625 20.7549 34.2971 20.3894C33.9316 20.024 33.4361 19.8185 32.9192 19.8181H21.8468C24.4557 15.9764 29.4644 15.3337 31.8332 15.2574C32.0067 15.2522 32.1774 15.2124 32.3352 15.1403C32.4931 15.0683 32.635 14.9654 32.7527 14.8377C32.8703 14.7101 32.9612 14.5602 33.0201 14.397C33.079 14.2337 33.1047 14.0603 33.0958 13.887C32.5479 4.09026 26.2017 0.988421 23.1105 0.0549491C22.9164 -0.00339034 22.7113 -0.0154779 22.5117 0.0196541C22.3121 0.0547861 22.1235 0.136162 21.961 0.257266C21.7985 0.378371 21.6666 0.53584 21.5759 0.717067C21.4852 0.898295 21.4381 1.09825 21.4386 1.30091V19.8181H16.0233V17.2192C16.0233 16.8745 15.8864 16.544 15.6427 16.3003C15.399 16.0566 15.0685 15.9197 14.7239 15.9197V12.6711C14.7239 12.3264 14.587 11.9959 14.3433 11.7522C14.0996 11.5085 13.7691 11.3716 13.4244 11.3716C13.0798 11.3716 12.7493 11.5085 12.5056 11.7522C12.2619 11.9959 12.125 12.3264 12.125 12.6711V15.9197C11.7803 15.9197 11.4498 16.0566 11.2061 16.3003C10.9624 16.544 10.8255 16.8745 10.8255 17.2192V19.8181H9.52902C9.27295 19.8178 9.01934 19.8679 8.7827 19.9658C8.54606 20.0636 8.33104 20.2072 8.14998 20.3882C7.96891 20.5693 7.82535 20.7843 7.72751 21.021C7.62968 21.2576 7.57949 21.5112 7.57984 21.7673V23.2292H34.8684V21.7673Z" fill="#4D479B"/>
</g>
</svg>
