<svg width="23" height="23" viewBox="0 0 23 23" fill="none" xmlns="http://www.w3.org/2000/svg">
<path fill-rule="evenodd" clip-rule="evenodd" d="M18.0714 19.0697C15.0152 22.1262 10.4898 22.7866 6.78642 21.0739C6.23971 20.8538 5.79148 20.6759 5.36537 20.6759C4.17849 20.6829 2.70117 21.8337 1.93336 21.0669C1.16555 20.299 2.31726 18.8205 2.31726 17.6264C2.31726 17.2003 2.14642 16.76 1.92632 16.2123C0.212831 12.5095 0.874109 7.98257 3.93026 4.92708C7.8316 1.02431 14.17 1.02431 18.0714 4.92608C21.9797 8.83488 21.9727 15.168 18.0714 19.0697Z" stroke="#5E6165" stroke-width="1.5" stroke-linecap="round" stroke-linejoin="round"/>
<path d="M14.9393 12.4128H14.9483" stroke="#5E6165" stroke-width="2" stroke-linecap="round" stroke-linejoin="round"/>
<path d="M10.9304 12.4128H10.9394" stroke="#5E6165" stroke-width="2" stroke-linecap="round" stroke-linejoin="round"/>
<path d="M6.9214 12.4128H6.9304" stroke="#5E6165" stroke-width="2" stroke-linecap="round" stroke-linejoin="round"/>
</svg>
