<svg width="23" height="23" viewBox="0 0 23 23" fill="none" xmlns="http://www.w3.org/2000/svg">
<path fill-rule="evenodd" clip-rule="evenodd" d="M1 12.0151C1 6.74724 5.21 2.00012 11.02 2.00012C16.7 2.00012 21 6.65711 21 11.9851C21 18.1644 15.96 22.0001 11 22.0001C9.36 22.0001 7.54 21.5595 6.08 20.6982C5.57 20.3877 5.14 20.1574 4.59 20.3376L2.57 20.9385C2.06 21.0988 1.6 20.6982 1.75 20.1574L2.42 17.914C2.53 17.6035 2.51 17.273 2.35 17.0126C1.49 15.4303 1 13.6977 1 12.0151ZM9.7 12.0151C9.7 12.7262 10.27 13.2971 10.98 13.3071C11.69 13.3071 12.26 12.7262 12.26 12.0252C12.26 11.3141 11.69 10.7432 10.98 10.7432C10.28 10.7332 9.7 11.3141 9.7 12.0151ZM14.31 12.0252C14.31 12.7262 14.88 13.3071 15.59 13.3071C16.3 13.3071 16.87 12.7262 16.87 12.0252C16.87 11.3141 16.3 10.7432 15.59 10.7432C14.88 10.7432 14.31 11.3141 14.31 12.0252ZM6.37 13.3071C5.67 13.3071 5.09 12.7262 5.09 12.0252C5.09 11.3141 5.66 10.7432 6.37 10.7432C7.08 10.7432 7.65 11.3141 7.65 12.0252C7.65 12.7262 7.08 13.2971 6.37 13.3071Z" fill="#007BC0"/>
</svg>
