<svg width="21" height="21" viewBox="0 0 21 21" fill="none" xmlns="http://www.w3.org/2000/svg">
<circle cx="10.7142" cy="10.4574" r="9.45741" fill="#007BC0" stroke="white" stroke-width="1.6"/>
<path d="M12.386 8.22839L10.7141 9.90024L9.04227 8.22839C8.96837 8.15449 8.86814 8.11297 8.76363 8.11297C8.65912 8.11297 8.55889 8.15449 8.48499 8.22839C8.41109 8.30229 8.36957 8.40252 8.36957 8.50703C8.36957 8.61154 8.41109 8.71177 8.48499 8.78567L10.1568 10.4575L8.48499 12.1294C8.41109 12.2033 8.36957 12.3035 8.36957 12.408C8.36957 12.5125 8.41109 12.6128 8.48499 12.6867C8.55889 12.7606 8.65912 12.8021 8.76363 12.8021C8.86814 12.8021 8.96837 12.7606 9.04227 12.6867L10.7141 11.0148L12.386 12.6867C12.4599 12.7606 12.5601 12.8021 12.6646 12.8021C12.7691 12.8021 12.8694 12.7606 12.9433 12.6867C13.0172 12.6128 13.0587 12.5125 13.0587 12.408C13.0587 12.3035 13.0172 12.2033 12.9433 12.1294L11.2714 10.4575L12.9433 8.78567C13.0172 8.71177 13.0587 8.61154 13.0587 8.50703C13.0587 8.40252 13.0172 8.30229 12.9433 8.22839C12.8694 8.15449 12.7691 8.11297 12.6646 8.11297C12.5601 8.11297 12.4599 8.15449 12.386 8.22839Z" fill="white"/>
</svg>
