<svg width="13" height="14" viewBox="0 0 13 14" fill="none" xmlns="http://www.w3.org/2000/svg">
<g id="Delete">
<path id="Stroke 1" d="M11.1027 5.35742C11.1027 5.35742 10.7505 9.72616 10.5462 11.5664C10.4489 12.4453 9.90596 12.9604 9.01664 12.9766C7.32428 13.0071 5.62998 13.009 3.93827 12.9734C3.08269 12.9558 2.54884 12.4343 2.45349 11.5709C2.24786 9.71448 1.89758 5.35742 1.89758 5.35742" stroke="black" stroke-width="1.4" stroke-linecap="round" stroke-linejoin="round"/>
<path id="Stroke 3" d="M12 3.26281H1" stroke="black" stroke-width="1.4" stroke-linecap="round" stroke-linejoin="round"/>
<path id="Stroke 5" d="M9.88038 3.26318C9.37118 3.26318 8.93269 2.90317 8.83279 2.40435L8.67517 1.61558C8.57787 1.25168 8.24835 1 7.87278 1H5.12699C4.75142 1 4.4219 1.25168 4.3246 1.61558L4.16697 2.40435C4.06708 2.90317 3.62858 3.26318 3.11938 3.26318" stroke="black" stroke-width="1.4" stroke-linecap="round" stroke-linejoin="round"/>
</g>
</svg>
