<svg width="34" height="34" viewBox="0 0 34 34" fill="none" xmlns="http://www.w3.org/2000/svg">
<circle cx="17" cy="17" r="17" fill="white"/>
<path d="M17 15.0364C15.878 15.0364 14.96 15.9204 14.96 17.0009C14.96 18.0813 15.878 18.9653 17 18.9653C18.122 18.9653 19.04 18.0813 19.04 17.0009C19.04 15.9204 18.122 15.0364 17 15.0364ZM17 12.0898C18.122 12.0898 19.04 11.2058 19.04 10.1253C19.04 9.04489 18.122 8.16089 17 8.16089C15.878 8.16089 14.96 9.04489 14.96 10.1253C14.96 11.2058 15.878 12.0898 17 12.0898ZM17 21.912C15.878 21.912 14.96 22.796 14.96 23.8764C14.96 24.9569 15.878 25.8409 17 25.8409C18.122 25.8409 19.04 24.9569 19.04 23.8764C19.04 22.796 18.122 21.912 17 21.912Z" fill="black"/>
</svg>
