<svg width="29" height="29" viewBox="0 0 29 29" fill="none" xmlns="http://www.w3.org/2000/svg">
<g id="Group 3594">
<circle id="Ellipse 45" cx="14.5" cy="14.5" r="14.5" fill="white"/>
<path id="Vector" d="M14.5 12.8244C13.543 12.8244 12.76 13.5784 12.76 14.5C12.76 15.4215 13.543 16.1755 14.5 16.1755C15.457 16.1755 16.24 15.4215 16.24 14.5C16.24 13.5784 15.457 12.8244 14.5 12.8244ZM14.5 10.3111C15.457 10.3111 16.24 9.55707 16.24 8.63552C16.24 7.71396 15.457 6.95996 14.5 6.95996C13.543 6.95996 12.76 7.71396 12.76 8.63552C12.76 9.55707 13.543 10.3111 14.5 10.3111ZM14.5 18.6889C13.543 18.6889 12.76 19.4429 12.76 20.3644C12.76 21.286 13.543 22.04 14.5 22.04C15.457 22.04 16.24 21.286 16.24 20.3644C16.24 19.4429 15.457 18.6889 14.5 18.6889Z" fill="black"/>
</g>
</svg>
