<svg width="14" height="14" viewBox="0 0 14 14" fill="none" xmlns="http://www.w3.org/2000/svg">
<path fill-rule="evenodd" clip-rule="evenodd" d="M4.95934 13.2437L11.7931 4.40638C12.1645 3.92982 12.2965 3.37884 12.1727 2.81783C12.0654 2.30783 11.7518 1.8229 11.2814 1.45503L10.1342 0.543707C9.13552 -0.250565 7.89752 -0.166958 7.18773 0.744366L6.42018 1.74013C6.32114 1.86471 6.3459 2.04864 6.4697 2.14897C6.4697 2.14897 8.40922 3.70408 8.45049 3.73752C8.58254 3.86293 8.68158 4.03015 8.70634 4.2308C8.74761 4.62376 8.47525 4.99163 8.07084 5.0418C7.88101 5.06688 7.69944 5.00836 7.56739 4.89966L5.52882 3.27768C5.42978 3.20327 5.28122 3.21915 5.19869 3.31948L0.353991 9.59005C0.0403648 9.98301 -0.0669283 10.493 0.0403648 10.9863L0.659363 13.6701C0.692376 13.8122 0.816176 13.9126 0.964736 13.9126L3.68833 13.8791C4.18353 13.8708 4.64571 13.645 4.95934 13.2437ZM8.77328 12.4081H13.2144C13.6477 12.4081 14.0001 12.7651 14.0001 13.2041C14.0001 13.6439 13.6477 14 13.2144 14H8.77328C8.33998 14 7.98757 13.6439 7.98757 13.2041C7.98757 12.7651 8.33998 12.4081 8.77328 12.4081Z" fill="white"/>
</svg>
