<svg width="32" height="24" viewBox="0 0 32 24" fill="none" xmlns="http://www.w3.org/2000/svg">
<path d="M32 7.95404V8.29154C31.9325 8.83279 31.7138 9.26904 31.3438 9.60029C31.185 9.74196 30.8852 9.91362 30.4444 10.1153C26.3235 11.9995 22.2027 13.8832 18.0819 15.7665C16.9402 16.2886 15.7763 16.3711 14.59 16.014C14.3479 15.9415 13.9627 15.7842 13.4344 15.5422C9.50771 13.7459 5.58021 11.9509 1.65188 10.1572C1.14312 9.92466 0.807917 9.73591 0.64625 9.59091C0.281667 9.26383 0.06625 8.82904 0 8.28654V7.94216C0.0658333 7.403 0.280625 6.96966 0.644375 6.64216C0.805208 6.49758 1.12458 6.31612 1.6025 6.09779C5.71833 4.21862 9.83333 2.3382 13.9475 0.456538C15.0633 -0.0534617 16.2075 -0.13617 17.38 0.208413C17.63 0.281747 18.016 0.437789 18.5381 0.676539C22.6377 2.54987 26.7373 4.42341 30.8369 6.29716C31.5173 6.60841 31.905 7.16071 32 7.95404Z" fill="#007BC0"/>
<path d="M28.0187 13.4237L29.9718 12.5243C29.991 12.5156 30.0006 12.5218 30.0006 12.5431C29.9993 14.5714 29.9995 16.6035 30.0012 18.6393C30.0012 19.0177 29.9693 19.2816 29.9056 19.4312C29.5787 20.1968 28.4031 20.2062 28.0756 19.3925C28.0256 19.2679 28.0006 19.0725 28.0006 18.8062C27.9998 17.0254 27.9995 15.2406 28 13.4518C28 13.4459 28.0018 13.4401 28.0051 13.4351C28.0084 13.4301 28.0132 13.4261 28.0187 13.4237Z" fill="#007BC0"/>
<path d="M8.10076 22.208C6.81576 21.508 6.00576 20.1668 6.00326 18.6824C6.00076 17.2412 5.99951 15.8032 5.99951 14.3687C5.99949 14.3654 6.0003 14.3622 6.00188 14.3594C6.00346 14.3565 6.00576 14.3541 6.00856 14.3524C6.01135 14.3506 6.01457 14.3496 6.0179 14.3494C6.02124 14.3492 6.02458 14.3498 6.02764 14.3512C8.29305 15.3874 10.5539 16.4207 12.8101 17.4512C13.2997 17.6749 13.6862 17.8295 13.9695 17.9149C15.3495 18.3307 16.7266 18.3235 18.1008 17.893C18.3728 17.808 18.7585 17.6516 19.2576 17.4237C21.4997 16.3999 23.7395 15.3762 25.977 14.3524C25.9794 14.3512 25.9821 14.3507 25.9848 14.3508C25.9874 14.351 25.99 14.3518 25.9923 14.3533C25.9946 14.3547 25.9964 14.3567 25.9977 14.3591C25.9989 14.3615 25.9996 14.3641 25.9995 14.3668C26.0008 15.8585 26.0006 17.3491 25.9989 18.8387C25.9985 19.1212 25.9362 19.4582 25.812 19.8499C25.4945 20.8549 24.8837 21.6255 23.9795 22.1618C23.7241 22.3135 23.3149 22.4995 22.752 22.7199C18.3851 24.4287 13.602 24.4368 9.24576 22.7087C8.69118 22.4887 8.30951 22.3218 8.10076 22.208Z" fill="#007BC0"/>
</svg>
