<svg width="27" height="27" viewBox="0 0 27 27" fill="none" xmlns="http://www.w3.org/2000/svg">
<path d="M27 18.4021C27 19.3798 26.6116 20.3175 25.9202 21.0089C25.2288 21.7003 24.2911 22.0887 23.3134 22.0887H3.68663C2.70887 22.0887 1.77117 21.7003 1.07979 21.0089C0.388412 20.3175 0 19.3798 0 18.4021V3.68663C0 2.70887 0.388412 1.77117 1.07979 1.07979C1.77117 0.388412 2.70887 0 3.68663 0H23.3134C24.2911 0 25.2288 0.388412 25.9202 1.07979C26.6116 1.77117 27 2.70887 27 3.68663V18.4021ZM12.8241 7.25936C12.6187 7.14109 12.3857 7.07894 12.1487 7.07916C11.9116 7.07939 11.6788 7.14198 11.4736 7.26064C11.2683 7.37931 11.0979 7.54988 10.9795 7.75523C10.861 7.96057 10.7987 8.19347 10.7987 8.43052V13.5506C10.7988 13.7854 10.8601 14.0162 10.9765 14.2201C11.0929 14.4241 11.2605 14.5941 11.4627 14.7136C11.6649 14.833 11.8947 14.8977 12.1295 14.9013C12.3643 14.9048 12.596 14.8471 12.8017 14.7339L17.3471 12.2305C17.557 12.1148 17.7323 11.9454 17.8551 11.7397C17.9779 11.534 18.0438 11.2993 18.046 11.0597C18.0482 10.8201 17.9867 10.5842 17.8677 10.3762C17.7488 10.1682 17.5766 9.99561 17.369 9.87607L12.8241 7.25936Z" fill="#CB6552"/>
<path d="M15.9688 24.5447H1.2131C0.545956 24.5447 0.00512695 25.0855 0.00512695 25.7527V25.7906C0.00512695 26.4578 0.545956 26.9986 1.2131 26.9986H15.9688C16.636 26.9986 17.1768 26.4578 17.1768 25.7906V25.7527C17.1768 25.0855 16.636 24.5447 15.9688 24.5447Z" fill="#CB6552"/>
<path d="M20.8629 26.9974C21.5402 26.9974 22.0892 26.4484 22.0892 25.7711C22.0892 25.0937 21.5402 24.5447 20.8629 24.5447C20.1855 24.5447 19.6365 25.0937 19.6365 25.7711C19.6365 26.4484 20.1855 26.9974 20.8629 26.9974Z" fill="#CB6552"/>
<path d="M25.7713 26.9974C26.4486 26.9974 26.9977 26.4484 26.9977 25.7711C26.9977 25.0937 26.4486 24.5447 25.7713 24.5447C25.094 24.5447 24.5449 25.0937 24.5449 25.7711C24.5449 26.4484 25.094 26.9974 25.7713 26.9974Z" fill="#CB6552"/>
</svg>
