<svg width="28" height="35" viewBox="0 0 28 35" fill="none" xmlns="http://www.w3.org/2000/svg">
<path d="M14.0312 6.3767C14.8848 5.50869 15.8903 4.88271 17.0479 4.49876C17.0752 4.48948 17.0902 4.47064 17.0928 4.44226C17.2295 2.98439 17.5665 1.64573 18.1037 0.426288C18.322 -0.0699018 19.0504 -0.107832 19.3763 0.313272C19.6147 0.620585 19.5451 0.898482 19.4011 1.27082C19.0543 2.16721 18.8074 3.09147 18.6603 4.0436C18.6015 4.42394 18.6004 4.80066 18.6572 5.17377C18.7354 5.68622 19.0419 6.27607 19.1998 6.76142C19.7022 8.30882 18.9854 9.67819 18.4404 11.0677C18.1324 11.8536 18.0183 12.6669 18.0983 13.5076C18.1148 13.6831 18.2209 14.0897 18.4164 14.7276C18.6894 15.6203 19.1451 16.6788 19.7835 17.9029C21.9455 22.0504 24.7136 25.9379 27.6451 29.5738C27.9493 29.9508 28.1413 30.279 27.8704 30.7047C27.7068 30.9622 27.4578 31.068 27.1234 31.0221C23.5231 30.5337 19.8679 31.5973 16.794 33.4311C16.056 33.8708 15.1436 34.2121 14.0568 34.4552C9.46722 35.4816 4.4341 33.6145 0.643389 31.1196C0.349236 30.9261 0.165261 30.7623 0.0914646 30.6281C-0.126054 30.2356 0.0783054 29.9206 0.35001 29.5831C3.04229 26.239 5.56349 22.7045 7.6605 18.9533C8.39175 17.6446 8.94213 16.4927 9.31162 15.4978C9.63519 14.6269 9.94328 13.7584 9.92161 12.8883C9.90406 12.2056 9.76472 11.5489 9.5036 10.9183C8.9269 9.52724 8.32621 8.24458 8.82008 6.70027C8.95632 6.2753 9.24428 5.72105 9.32633 5.2566C9.39806 4.85149 9.39935 4.43452 9.3302 4.00567C9.17642 3.05045 8.93284 2.13986 8.59946 1.27391C8.5107 1.04427 8.464 0.886097 8.45935 0.799399C8.42142 0.138328 9.27292 -0.271165 9.74202 0.209544C9.81994 0.289017 9.90096 0.433255 9.98508 0.642259C10.4769 1.86377 10.786 3.13121 10.9124 4.44458C10.915 4.47193 10.9292 4.48999 10.955 4.49876C12.112 4.88323 13.1176 5.50921 13.9716 6.3767C13.9912 6.39734 14.0111 6.39734 14.0312 6.3767Z" fill="#4A9C48"/>
</svg>
