<svg width="32" height="32" viewBox="0 0 32 32" fill="none" xmlns="http://www.w3.org/2000/svg">
<path d="M7.46774 1.76477C6.71444 1.54074 5.96493 1.32631 5.21922 1.12148C5.04919 1.07462 4.98828 0.966398 5.03647 0.796817L5.21855 0.160887C5.23446 0.104532 5.27209 0.0567994 5.32318 0.0281803C5.37427 -0.000438703 5.43463 -0.00760251 5.491 0.00826348C6.57275 0.314402 7.65584 0.624335 8.74027 0.93806C9.04886 1.02709 9.13655 1.28548 9.13789 1.60144C9.14235 2.57653 9.14213 3.55184 9.13722 4.52738C9.13677 4.55237 9.12406 4.56487 9.09906 4.56487H8.04543C8.03318 4.56487 8.02143 4.55993 8.01277 4.55115C8.00411 4.54236 7.99924 4.53044 7.99924 4.51801C7.99879 3.78212 7.9979 3.04912 7.99656 2.31903C7.99589 1.99705 7.76696 1.8538 7.46774 1.76477Z" fill="#2B71EA"/>
<path d="M1.52084 6.80472C1.66856 6.50572 1.80846 6.22725 1.94056 5.9693C2.04364 5.76782 2.28597 5.71092 2.51892 5.71092C6.6094 5.71047 10.6999 5.71069 14.7904 5.71159C15.1753 5.71159 15.4564 6.45127 15.6151 6.82011C15.6244 6.84243 15.6173 6.85358 15.5936 6.85358H1.55097C1.51482 6.85358 1.50478 6.83729 1.52084 6.80472Z" fill="#2B71EA"/>
<path d="M16.5583 7.99219H0.578362C0.258941 7.99219 0 8.25113 0 8.57055V9.13017C0 9.44959 0.258941 9.70853 0.578362 9.70853H16.5583C16.8777 9.70853 17.1366 9.44959 17.1366 9.13017V8.57055C17.1366 8.25113 16.8777 7.99219 16.5583 7.99219Z" fill="#2B71EA"/>
<path d="M11.1769 16.4828C10.5758 17.588 10.2284 18.9234 10.288 20.1585C10.304 20.4829 10.4439 20.7966 10.7077 21.0997C10.7246 21.1188 10.7253 21.1385 10.7097 21.1586C10.0945 21.9679 10.138 22.8468 10.879 23.549C10.886 23.5557 10.8902 23.5649 10.8907 23.5746C10.8912 23.5843 10.888 23.5938 10.8817 23.6012C10.1621 24.444 10.0871 25.4769 10.6769 26.4073C10.7264 26.485 10.8134 26.5713 10.879 26.6543C10.8951 26.6744 10.8935 26.6929 10.8744 26.7099C10.2886 27.2247 10.2719 27.7823 10.2833 28.5039C10.3034 29.8614 10.7934 31.0315 11.8008 31.9486C11.8294 31.9745 11.8242 31.9874 11.7854 31.9874C9.27694 31.987 6.76268 31.987 4.24261 31.9874C3.8615 31.9874 3.59017 31.9542 3.42862 31.8877C2.89377 31.6668 2.75922 31.2377 2.71437 30.656C2.20652 24.0615 1.69889 17.4697 1.19148 10.8806C1.1912 10.8769 1.19169 10.8732 1.19291 10.8697C1.19413 10.8662 1.19606 10.863 1.19858 10.8603C1.20109 10.8576 1.20414 10.8555 1.20752 10.854C1.21091 10.8525 1.21457 10.8518 1.21826 10.8518H15.9129C15.9375 10.8518 15.9489 10.8641 15.9471 10.8886L15.8025 12.779C15.8007 12.8036 15.788 12.8194 15.7643 12.8265C13.6994 13.4361 12.1703 14.6549 11.1769 16.4828Z" fill="#2B71EA"/>
<path d="M11.4299 19.801C11.5203 16.6622 13.9288 14.093 17.0187 13.747C17.2686 13.7193 17.7145 13.7057 18.3562 13.7061C20.5871 13.7075 22.818 13.7068 25.0489 13.7041C25.6723 13.7037 26.1179 13.7186 26.3857 13.749C29.5593 14.1084 31.951 16.7385 31.9905 19.9409C31.9966 20.4383 31.6552 20.5608 31.2067 20.5608C24.8085 20.5608 18.4104 20.5608 12.0123 20.5608C11.5558 20.5608 11.4179 20.2154 11.4299 19.801ZM19.9843 15.3873C19.9848 15.2472 19.9296 15.1127 19.8309 15.0133C19.7322 14.9139 19.5981 14.8578 19.458 14.8573L18.8207 14.855C18.6807 14.8545 18.5461 14.9097 18.4467 15.0084C18.3473 15.1071 18.2912 15.2413 18.2907 15.3813L18.2905 15.4536C18.29 15.5937 18.3452 15.7282 18.4439 15.8276C18.5426 15.927 18.6767 15.9832 18.8168 15.9836L19.454 15.9859C19.5941 15.9864 19.7287 15.9312 19.828 15.8325C19.9274 15.7338 19.9836 15.5996 19.984 15.4596L19.9843 15.3873ZM23.4108 17.0973C23.4108 16.9572 23.3552 16.8229 23.2561 16.7238C23.1571 16.6248 23.0228 16.5691 22.8827 16.5691H22.2454C22.1053 16.5691 21.971 16.6248 21.8719 16.7238C21.7729 16.8229 21.7173 16.9572 21.7173 17.0973V17.1696C21.7173 17.3097 21.7729 17.444 21.8719 17.5431C21.971 17.6421 22.1053 17.6978 22.2454 17.6978H22.8827C23.0228 17.6978 23.1571 17.6421 23.2561 17.5431C23.3552 17.444 23.4108 17.3097 23.4108 17.1696V17.0973ZM18.2686 17.6719C18.2691 17.5315 18.2138 17.3966 18.1148 17.297C18.0159 17.1973 17.8814 17.1411 17.741 17.1406L17.1077 17.1384C17.0382 17.1381 16.9693 17.1516 16.905 17.178C16.8406 17.2044 16.7821 17.2431 16.7328 17.2921C16.6834 17.3411 16.6442 17.3994 16.6174 17.4635C16.5906 17.5277 16.5766 17.5965 16.5764 17.666L16.5761 17.737C16.5757 17.8774 16.631 18.0123 16.7299 18.1119C16.8289 18.2116 16.9634 18.2678 17.1038 18.2683L17.737 18.2705C17.8066 18.2708 17.8755 18.2573 17.9398 18.2309C18.0041 18.2045 18.0626 18.1657 18.112 18.1167C18.1613 18.0677 18.2005 18.0095 18.2274 17.9454C18.2542 17.8812 18.2681 17.8124 18.2684 17.7429L18.2686 17.6719Z" fill="#2B71EA"/>
<path d="M24.4204 23.2592C24.0757 22.9881 23.6198 22.8515 23.1914 22.8508C19.4927 22.8486 15.7943 22.8473 12.0961 22.8468C11.6369 22.8468 11.256 22.4338 11.503 21.994C11.6516 21.7296 11.8779 21.7021 12.1865 21.7021C18.5882 21.7021 24.9899 21.7021 31.3916 21.7021C31.7718 21.7021 32.0703 22.0937 31.9605 22.4512C31.8608 22.7759 31.5763 22.8468 31.2456 22.8468C30.4794 22.8464 29.7136 22.847 28.9482 22.8488C28.4696 22.8502 28.0439 23.1059 27.6295 23.4339C27.1828 23.7882 26.743 24.1397 26.3101 24.4882C26.1946 24.581 26.079 24.581 25.9634 24.4882C25.4582 24.0816 24.9439 23.672 24.4204 23.2592Z" fill="#2B71EA"/>
<path d="M25.3335 25.4457C25.6581 25.7047 26.1675 25.7502 26.5277 25.6425C26.7017 25.5903 26.9449 25.4396 27.2573 25.1906C27.6942 24.8425 28.1309 24.494 28.5673 24.145C28.7012 24.0386 28.9362 23.9924 29.1283 23.9917C29.6219 23.9895 30.1154 23.9888 30.609 23.9897C30.9107 23.9906 31.1278 24.0167 31.2603 24.068C32.4164 24.5132 32.1212 26.2556 30.856 26.2576C24.7921 26.2675 18.7285 26.2726 12.6651 26.273C12.2112 26.273 11.8723 26.1162 11.6482 25.8025C11.1971 25.1725 11.4749 24.2501 12.2433 24.0352C12.3509 24.0049 12.5439 23.9897 12.8224 23.9897C16.3064 23.9879 19.7906 23.9882 23.2751 23.9904C23.4241 23.9904 23.5881 24.0611 23.7671 24.2026C24.2905 24.6154 24.8127 25.0297 25.3335 25.4457Z" fill="#2B71EA"/>
<path d="M31.399 27.416C31.5584 27.416 31.7113 27.4793 31.824 27.5921C31.9367 27.7048 32.0001 27.8577 32.0001 28.0171V28.5239C32.0001 29.4451 31.6289 30.3286 30.9682 30.98C30.3075 31.6314 29.4114 31.9974 28.477 31.9974H14.9418C14.0074 31.9974 13.1113 31.6314 12.4506 30.98C11.7899 30.3286 11.4187 29.4451 11.4187 28.5239V28.0171C11.4187 27.9382 11.4342 27.86 11.4645 27.7871C11.4947 27.7142 11.5389 27.6479 11.5948 27.5921C11.6506 27.5363 11.7169 27.492 11.7898 27.4618C11.8627 27.4316 11.9409 27.416 12.0198 27.416H31.399Z" fill="#2B71EA"/>
</svg>
