<svg width="19" height="20" viewBox="0 0 19 20" fill="none" xmlns="http://www.w3.org/2000/svg">
<path d="M18.17 10.2104C18.17 9.43171 18.1082 8.86346 17.9743 8.27417H9.27045V11.7889H14.3794C14.2765 12.6623 13.7202 13.9777 12.4842 14.8616L12.4668 14.9793L15.2188 17.1573L15.4095 17.1767C17.1606 15.5246 18.17 13.0937 18.17 10.2104Z" fill="#4285F4"/>
<path d="M9.27036 19.4709C11.7733 19.4709 13.8746 18.629 15.4094 17.1768L12.4841 14.8617C11.7013 15.4194 10.6506 15.8088 9.27036 15.8088C6.81887 15.8088 4.73819 14.1567 3.99649 11.8732L3.88777 11.8826L1.02619 14.1451L0.98877 14.2514C2.51322 17.3451 5.64457 19.4709 9.27036 19.4709Z" fill="#34A853"/>
<path d="M3.99654 11.8732C3.80083 11.2839 3.68757 10.6525 3.68757 10.0001C3.68757 9.34762 3.80083 8.71625 3.98624 8.12696L3.98106 8.00146L1.08362 5.70264L0.98882 5.7487C0.36052 7.03254 0 8.47424 0 10.0001C0 11.5259 0.36052 12.9676 0.98882 14.2514L3.99654 11.8732Z" fill="#FBBC05"/>
<path d="M9.27036 4.1912C11.0111 4.1912 12.1853 4.95939 12.8549 5.60134L15.4712 2.99159C13.8644 1.46574 11.7733 0.529175 9.27036 0.529175C5.64457 0.529175 2.51322 2.65483 0.98877 5.74861L3.98619 8.12687C4.73819 5.84335 6.81887 4.1912 9.27036 4.1912Z" fill="#EB4335"/>
</svg>
