<svg width="23" height="22" viewBox="0 0 23 22" fill="none" xmlns="http://www.w3.org/2000/svg">
<path fill-rule="evenodd" clip-rule="evenodd" d="M15.8501 1.00016C16.4811 1.00016 17.1111 1.08916 17.7101 1.29016C21.4011 2.49016 22.7311 6.54016 21.6201 10.0802C20.9901 11.8892 19.9601 13.5402 18.6111 14.8892C16.6801 16.7592 14.5611 18.4192 12.2801 19.8492L12.0301 20.0002L11.7701 19.8392C9.48114 18.4192 7.35014 16.7592 5.40114 14.8792C4.06114 13.5302 3.03014 11.8892 2.39014 10.0802C1.26014 6.54016 2.59014 2.49016 6.32114 1.26916C6.61114 1.16916 6.91014 1.09916 7.21014 1.06016H7.33014C7.61114 1.01916 7.89014 1.00016 8.17014 1.00016H8.28014C8.91014 1.01916 9.52014 1.12916 10.1111 1.33016H10.1701C10.2101 1.34916 10.2401 1.37016 10.2601 1.38916C10.4811 1.46016 10.6901 1.54016 10.8901 1.65016L11.2701 1.82016C11.362 1.86913 11.465 1.94396 11.5541 2.00863C11.6105 2.0496 11.6614 2.0865 11.7001 2.11016C11.7165 2.11979 11.733 2.12947 11.7498 2.13923C11.8355 2.18928 11.9248 2.24142 12.0001 2.29916C13.1111 1.45016 14.4601 0.99016 15.8501 1.00016ZM18.5101 8.20016C18.9201 8.18916 19.2701 7.86016 19.3001 7.43916V7.32016C19.3301 5.91916 18.4811 4.65016 17.1901 4.16016C16.7801 4.01916 16.3301 4.24016 16.1801 4.66016C16.0401 5.08016 16.2601 5.54016 16.6801 5.68916C17.3211 5.92916 17.7501 6.56016 17.7501 7.25916V7.29016C17.7311 7.51916 17.8001 7.74016 17.9401 7.91016C18.0801 8.08016 18.2901 8.17916 18.5101 8.20016Z" fill="#007BC0"/>
</svg>
