<svg width="25" height="25" viewBox="0 0 25 25" fill="none" xmlns="http://www.w3.org/2000/svg">
<path fill-rule="evenodd" clip-rule="evenodd" d="M16.5102 2.6049C17.1675 2.6049 17.8238 2.69761 18.4477 2.90699C22.2925 4.15699 23.6779 8.37574 22.5206 12.0632C21.8644 13.9476 20.7915 15.6674 19.3863 17.0726C17.3748 19.0205 15.1675 20.7497 12.7915 22.2393L12.5311 22.3966L12.2602 22.2289C9.87586 20.7497 7.65606 19.0205 5.62586 17.0622C4.23002 15.657 3.15606 13.9476 2.4894 12.0632C1.31231 8.37574 2.69773 4.15699 6.58419 2.88511C6.88627 2.78094 7.19773 2.70803 7.51023 2.6674H7.63523C7.92794 2.62469 8.21856 2.6049 8.51023 2.6049H8.62481C9.28106 2.62469 9.91648 2.73928 10.5321 2.94865H10.5936C10.6352 2.96844 10.6665 2.99032 10.6873 3.01011C10.9175 3.08407 11.1352 3.1674 11.3436 3.28199L11.7394 3.45907C11.835 3.51008 11.9424 3.58803 12.0352 3.65539C12.094 3.69807 12.1469 3.73651 12.1873 3.76115C12.2043 3.77118 12.2216 3.78127 12.239 3.79143C12.3283 3.84357 12.4214 3.89788 12.4998 3.95803C13.6571 3.07365 15.0623 2.59449 16.5102 2.6049ZM19.2811 10.1049C19.7081 10.0934 20.0727 9.75074 20.104 9.31219V9.18824C20.1352 7.72886 19.2509 6.40699 17.9061 5.89657C17.479 5.74969 17.0102 5.9799 16.854 6.4174C16.7081 6.8549 16.9373 7.33407 17.3748 7.48928C18.0425 7.73928 18.4894 8.39657 18.4894 9.12469V9.15699C18.4696 9.39553 18.5415 9.62574 18.6873 9.80282C18.8331 9.9799 19.0519 10.083 19.2811 10.1049Z" fill="#E10100"/>
</svg>
