<svg width="18" height="19" viewBox="0 0 18 19" fill="none" xmlns="http://www.w3.org/2000/svg">
<path d="M6.41255 17.2009V14.5218C6.41255 13.8379 6.97101 13.2835 7.65991 13.2835H10.1782C10.509 13.2835 10.8263 13.414 11.0602 13.6462C11.2941 13.8785 11.4255 14.1934 11.4255 14.5218V17.2009C11.4234 17.4852 11.5358 17.7586 11.7375 17.9604C11.9393 18.1622 12.2139 18.2757 12.5003 18.2757H14.2184C15.0208 18.2777 15.791 17.9628 16.3592 17.4002C16.9273 16.8377 17.2466 16.0739 17.2466 15.2773V7.64501C17.2465 7.00155 16.9592 6.3912 16.4621 5.97837L10.6175 1.34449C9.60082 0.532017 8.14415 0.55825 7.15783 1.4068L1.44663 5.97837C0.925949 6.37903 0.614744 6.99119 0.599365 7.64501V15.2695C0.599365 16.9298 1.95513 18.2757 3.62755 18.2757H5.3064C5.90126 18.2757 6.3847 17.7992 6.38901 17.2087L6.41255 17.2009Z" fill="#007BC0"/>
</svg>
