<svg width="19" height="20" viewBox="0 0 19 20" fill="none" xmlns="http://www.w3.org/2000/svg">
<path d="M6.95633 17.7955V15.0515C6.95632 14.3536 7.5253 13.7865 8.23026 13.7818H10.8125C11.5209 13.7818 12.0951 14.3503 12.0951 15.0515V15.0515V17.804C12.0949 18.3965 12.5726 18.8808 13.171 18.8947H14.8925C16.6087 18.8947 17.9999 17.5175 17.9999 15.8185V15.8185V8.0128C17.9907 7.34442 17.6737 6.71679 17.1391 6.3085L11.2515 1.61316C10.2201 0.795612 8.75385 0.795612 7.72241 1.61316L1.86064 6.31702C1.324 6.72365 1.00649 7.35233 0.999878 8.02132V15.8185C0.999878 17.5175 2.39108 18.8947 4.10722 18.8947H5.82874C6.44198 18.8947 6.93912 18.4026 6.93912 17.7955V17.7955" stroke="#5E6165" stroke-width="1.5" stroke-linecap="round" stroke-linejoin="round"/>
</svg>
