<svg width="30" height="29" viewBox="0 0 30 29" fill="none" xmlns="http://www.w3.org/2000/svg">
<path d="M15.2752 4.39313L15.2758 7.82321C15.2758 7.85182 15.2631 7.85907 15.2377 7.84497C14.9597 7.68905 14.6698 7.55933 14.3681 7.45579C14.3592 7.45257 14.3516 7.44679 14.3462 7.43922C14.3408 7.43166 14.3379 7.42267 14.3379 7.41349V4.39132C14.3379 4.37238 14.3288 4.3605 14.3107 4.35566C12.7141 3.91935 12.0203 2.0496 13.1377 0.761807C14.2116 -0.476432 16.1768 -0.148894 16.8349 1.33651C17.4048 2.62188 16.6185 3.99368 15.3011 4.35808C15.2838 4.36291 15.2752 4.3746 15.2752 4.39313Z" fill="#D58750"/>
<path d="M5.57538 9.22215C4.90761 9.95881 3.85731 10.1812 2.94903 9.72978C1.23943 8.88072 1.35425 6.48522 3.06264 5.72922C3.32008 5.61521 3.59565 5.55659 3.88934 5.55336C5.38139 5.53705 6.43411 6.93785 6.05339 8.35798C6.051 8.36694 6.05167 8.37644 6.05528 8.38497C6.05889 8.39351 6.06524 8.4006 6.07333 8.40512L7.62521 9.28984C7.62683 9.29076 7.62825 9.29201 7.62936 9.29351C7.63046 9.29502 7.63124 9.29674 7.63164 9.29856C7.63204 9.30038 7.63205 9.30227 7.63167 9.3041C7.63129 9.30593 7.63053 9.30766 7.62944 9.30917L7.11154 10.0501C7.10788 10.0552 7.10246 10.0587 7.09632 10.0601C7.09018 10.0614 7.08376 10.0604 7.07831 10.0573L5.60982 9.21671C5.60429 9.21366 5.59791 9.21254 5.59167 9.21352C5.58543 9.21451 5.5797 9.21754 5.57538 9.22215Z" fill="#D58750"/>
<path d="M23.2578 8.45461C22.6945 6.6598 24.4331 5.02694 26.1754 5.7213C27.6813 6.32199 28.033 8.30051 26.8444 9.39009C25.9651 10.1956 24.6078 10.1509 23.7757 9.30186C23.7694 9.29565 23.7613 9.29169 23.7525 9.2906C23.7438 9.28951 23.7349 9.29134 23.7273 9.29582L22.1754 10.1932C22.167 10.1979 22.1571 10.1995 22.1477 10.1976C22.1383 10.1957 22.1299 10.1905 22.1241 10.1829C21.9391 9.94566 21.7331 9.7283 21.5059 9.53089C21.5033 9.52871 21.5014 9.52594 21.5002 9.52283C21.499 9.51972 21.4985 9.51635 21.4989 9.513C21.4993 9.50964 21.5004 9.50639 21.5022 9.50352C21.5041 9.50064 21.5066 9.49822 21.5095 9.49645L23.2427 8.4945C23.2494 8.49059 23.2545 8.4845 23.2573 8.47723C23.26 8.46997 23.2602 8.46198 23.2578 8.45461Z" fill="#D58750"/>
<path d="M20.3551 14.3945C20.4361 14.3212 20.5185 14.2493 20.6023 14.1788C21.1534 13.7151 21.7789 13.5692 22.4787 13.7413C23.9152 14.0942 24.8156 15.5222 24.7316 16.9459C24.6301 18.6707 23.1175 19.8998 21.406 19.8998C17.5082 19.9002 13.6104 19.8984 9.71258 19.8944C8.95477 19.8936 8.55209 19.8914 8.50456 19.8877C6.60278 19.7445 5.05695 18.2102 4.89136 16.3102C4.78017 15.0297 5.26604 13.8416 6.22629 12.9768C6.22813 12.9752 6.23041 12.9741 6.23285 12.9737C6.23529 12.9733 6.23779 12.9737 6.24003 12.9747C6.24228 12.9757 6.24417 12.9774 6.24549 12.9795C6.24681 12.9816 6.24749 12.984 6.24744 12.9865C6.22166 13.8382 6.39328 14.6459 6.76232 15.4098C6.76409 15.4133 6.76723 15.416 6.77107 15.4172C6.77491 15.4185 6.77915 15.4182 6.78287 15.4164L7.58298 15.0248C7.59117 15.0207 7.59741 15.0135 7.60035 15.0048C7.60328 14.9961 7.60269 14.9866 7.59869 14.9783C7.2365 14.2285 7.11061 13.4339 7.22099 12.5943C7.74433 8.60883 12.2888 6.67442 15.5007 9.13096C15.5196 9.14506 15.519 9.15855 15.4989 9.17145C14.8446 9.58036 14.3525 10.1337 14.0225 10.8315C14.0125 10.8533 14.0183 10.869 14.0401 10.8786L14.8287 11.2406C14.8509 11.2507 14.8672 11.2448 14.8776 11.2231C15.1444 10.6707 15.5295 10.2437 16.0331 9.94195C16.7329 9.52195 17.4061 9.26149 18.2938 9.26814C19.3449 9.27619 20.2423 9.62851 20.986 10.3251C21.6605 10.956 22.0643 11.7426 22.1977 12.6849C22.2005 12.7039 22.1925 12.7131 22.1735 12.7127C21.1635 12.6926 20.3223 13.0497 19.6499 13.7842C19.6466 13.7877 19.6441 13.7919 19.6425 13.7965C19.6408 13.8011 19.6401 13.8059 19.6404 13.8108C19.6407 13.8156 19.642 13.8204 19.6441 13.8247C19.6463 13.8291 19.6493 13.833 19.6529 13.8361L20.3026 14.3957C20.3203 14.4106 20.3378 14.4102 20.3551 14.3945Z" fill="#D58750"/>
<path d="M4.27072 20.5761C4.6176 21.5291 4.27375 22.6018 3.45188 23.1541C2.31396 23.9186 0.803777 23.5052 0.21155 22.2742C-0.135326 21.5539 -0.0483048 20.6927 0.41883 20.0449C1.21048 18.9469 2.7406 18.8357 3.72382 19.7421C3.72886 19.7469 3.73529 19.7498 3.74216 19.7506C3.74902 19.7513 3.75594 19.7499 3.76189 19.7464L4.99892 19.0327C5.00629 19.0283 5.01504 19.0268 5.02359 19.0285C5.03213 19.0302 5.03989 19.0349 5.04545 19.0417C5.23239 19.2754 5.44068 19.4881 5.67032 19.6799C5.67384 19.6829 5.6766 19.6867 5.67835 19.691C5.6801 19.6953 5.6808 19.6999 5.68038 19.7046C5.67997 19.7092 5.67845 19.7136 5.67597 19.7175C5.67348 19.7214 5.67009 19.7247 5.66609 19.727L4.28825 20.5265C4.26851 20.5382 4.26267 20.5547 4.27072 20.5761Z" fill="#D58750"/>
<path d="M25.7106 20.7061L24.2476 19.8715C24.2434 19.8691 24.2399 19.8658 24.2373 19.8617C24.2347 19.8577 24.233 19.8531 24.2326 19.8483C24.2321 19.8435 24.2328 19.8387 24.2345 19.8342C24.2363 19.8297 24.2391 19.8257 24.2428 19.8226C24.4736 19.6288 24.6803 19.412 24.8628 19.1723C24.8666 19.1671 24.8723 19.1635 24.8786 19.1622C24.885 19.1609 24.8916 19.1619 24.8972 19.1651L26.2418 19.9326C26.2575 19.9414 26.272 19.9398 26.2853 19.9277C27.7937 18.5354 30.2049 19.7331 29.9861 21.7951C29.8061 23.4932 27.7121 24.3725 26.3772 23.2297C25.6478 22.6054 25.4151 21.6754 25.7276 20.7514C25.734 20.7317 25.7284 20.7166 25.7106 20.7061Z" fill="#D58750"/>
<path d="M15.3005 24.3947C17.3752 24.97 17.6459 27.7354 15.6438 28.5947C14.86 28.9313 13.8611 28.7385 13.2495 28.1167C12.004 26.8507 12.6379 24.828 14.3228 24.3965C14.3328 24.3941 14.3379 24.3877 14.3379 24.3772V20.8607C14.3379 20.8434 14.3463 20.8347 14.3633 20.8347H15.254C15.2595 20.8347 15.2647 20.8369 15.2685 20.8409C15.2724 20.8449 15.2746 20.8503 15.2746 20.8559L15.2752 24.3621C15.2752 24.379 15.2836 24.3899 15.3005 24.3947Z" fill="#D58750"/>
</svg>
