<svg width="34" height="26" viewBox="0 0 34 26" fill="none" xmlns="http://www.w3.org/2000/svg">
<path d="M26.8098 11.5544L25.6651 0.786985C25.6293 0.321949 25.2358 0 24.7708 0H21.3724C20.9074 0 20.5139 0.357721 20.4781 0.786985L19.6912 8.1918L15.0408 4.00647C14.7904 3.79184 14.3969 3.93493 14.3611 4.25688L13.7172 8.01294L9.24571 3.9707C8.9953 3.75607 8.60181 3.89916 8.53027 4.2211L7.88637 7.97717L3.48641 3.9707C3.236 3.75607 2.84251 3.89916 2.77096 4.2211L0.0165143 20.712C-0.0908019 21.2486 0.338463 21.7494 0.910816 21.7494H18.6895V15.0243C18.6895 13.0926 20.2635 11.5186 22.1952 11.5186H26.8098V11.5544ZM8.78067 18.3511C8.78067 18.673 8.49449 18.9592 8.17255 18.9592H6.20508C5.88313 18.9592 5.59696 18.673 5.59696 18.3511V17.0275C5.59696 16.7056 5.88313 16.4194 6.20508 16.4194H8.17255C8.49449 16.4194 8.78067 16.7056 8.78067 17.0275V18.3511ZM8.78067 13.5218C8.78067 13.8438 8.49449 14.13 8.17255 14.13H6.20508C5.88313 14.13 5.59696 13.8438 5.59696 13.5218V12.1983C5.59696 11.8763 5.88313 11.5902 6.20508 11.5902H8.17255C8.49449 11.5902 8.78067 11.8763 8.78067 12.1983V13.5218ZM15.1839 18.3511C15.1839 18.673 14.8977 18.9592 14.5757 18.9592H12.6083C12.2863 18.9592 12.0002 18.673 12.0002 18.3511V17.0275C12.0002 16.7056 12.2863 16.4194 12.6083 16.4194H14.5757C14.8977 16.4194 15.1839 16.7056 15.1839 17.0275V18.3511ZM15.1839 13.5218C15.1839 13.8438 14.8977 14.13 14.5757 14.13H12.6083C12.2863 14.13 12.0002 13.8438 12.0002 13.5218V12.1983C12.0002 11.8763 12.2863 11.5902 12.6083 11.5902H14.5757C14.8977 11.5902 15.1839 11.8763 15.1839 12.1983V13.5218Z" fill="#8CC640"/>
<path d="M32.6407 13.7004H28.4912V15.7394C28.4912 16.2045 28.1334 16.5622 27.6684 16.5622H27.2034C26.7383 16.5622 26.3806 16.2045 26.3806 15.7394V13.7004H22.1953C21.4441 13.7004 20.8359 14.3086 20.8359 15.0598V23.8597C20.8359 24.6109 21.4441 25.219 22.1953 25.219H32.6407C33.3919 25.219 34.0001 24.6109 34.0001 23.8597V15.0598C34.0001 14.3086 33.3919 13.7004 32.6407 13.7004Z" fill="#8CC640"/>
</svg>
