<svg width="23" height="22" viewBox="0 0 23 22" fill="none" xmlns="http://www.w3.org/2000/svg">
<path fill-rule="evenodd" clip-rule="evenodd" d="M16.0278 2.75C17.2571 2.75 18.4396 3.23583 19.3095 4.10758C20.1803 4.9775 20.6671 6.15083 20.6671 7.37917V14.6208C20.6671 17.1783 18.5862 19.25 16.0278 19.25H6.97207C4.41366 19.25 2.33374 17.1783 2.33374 14.6208V7.37917C2.33374 4.82167 4.40449 2.75 6.97207 2.75H16.0278ZM17.4862 8.745L17.5596 8.67167C17.7787 8.40583 17.7787 8.02083 17.5495 7.755C17.4221 7.61842 17.247 7.535 17.0646 7.51667C16.8721 7.50658 16.6887 7.57167 16.5503 7.7L12.4171 11C11.8854 11.4409 11.1237 11.4409 10.5837 11L6.45874 7.7C6.17366 7.48917 5.77949 7.51667 5.54207 7.76417C5.29457 8.01167 5.26707 8.40583 5.47699 8.68083L5.59707 8.8L9.76791 12.0542C10.2812 12.4575 10.9037 12.6775 11.5554 12.6775C12.2053 12.6775 12.8387 12.4575 13.3512 12.0542L17.4862 8.745Z" fill="white"/>
</svg>
