<svg width="24" height="24" viewBox="0 0 24 24" fill="none" xmlns="http://www.w3.org/2000/svg">
<path d="M8.45871 0H1.90597C0.853333 0 0 0.853333 0 1.90597V8.45871C0 9.51135 0.853333 10.3647 1.90597 10.3647H8.45871C9.51135 10.3647 10.3647 9.51135 10.3647 8.45871V1.90597C10.3647 0.853333 9.51135 0 8.45871 0Z" fill="#EAB04B"/>
<path d="M21.5539 0H15.0012C13.9485 0 13.0952 0.853333 13.0952 1.90597V8.45871C13.0952 9.51135 13.9485 10.3647 15.0012 10.3647H21.5539C22.6066 10.3647 23.4599 9.51135 23.4599 8.45871V1.90597C23.4599 0.853333 22.6066 0 21.5539 0Z" fill="#EAB04B"/>
<path d="M19.6326 13.1174L23.4389 16.9237C23.7981 17.283 23.9999 17.7702 23.9999 18.2783C23.9999 18.7863 23.7981 19.2736 23.4389 19.6328L19.6326 23.4391C19.2733 23.7984 18.7861 24.0002 18.278 24.0002C17.77 24.0002 17.2828 23.7984 16.9235 23.4391L13.1172 19.6328C12.758 19.2736 12.5562 18.7863 12.5562 18.2783C12.5562 17.7702 12.758 17.283 13.1172 16.9237L16.9235 13.1174C17.2828 12.7582 17.77 12.5564 18.278 12.5564C18.7861 12.5564 19.2733 12.7582 19.6326 13.1174Z" fill="#EAB04B"/>
<path d="M8.45871 13.0952H1.90597C0.853333 13.0952 0 13.9485 0 15.0012V21.5539C0 22.6066 0.853333 23.4599 1.90597 23.4599H8.45871C9.51135 23.4599 10.3647 22.6066 10.3647 21.5539V15.0012C10.3647 13.9485 9.51135 13.0952 8.45871 13.0952Z" fill="#EAB04B"/>
</svg>
