<svg width="50" height="49" viewBox="0 0 50 49" fill="none" xmlns="http://www.w3.org/2000/svg">
<path d="M22.0264 24.6533C22.0928 24.5869 22.0795 24.5611 21.9866 24.5759C18.2212 25.1876 14.9117 26.6469 12.0581 28.9537C11.5229 29.3865 11.1363 29.6494 10.898 29.7423C8.81691 30.5591 6.74637 28.294 7.77988 26.2891C7.95721 25.9461 8.32827 25.545 8.89307 25.0857C13.838 21.07 20.0777 19.0123 26.4792 19.4072C26.5854 19.4135 26.7776 19.4603 27.0557 19.5478C27.101 19.5619 27.1405 19.5521 27.1741 19.5185L31.5999 15.0915C31.6055 15.0859 31.6096 15.0788 31.6115 15.071C31.6135 15.0632 31.6133 15.0551 31.611 15.0474C31.6088 15.0397 31.6045 15.0328 31.5986 15.0274C31.5927 15.022 31.5855 15.0182 31.5776 15.0165C21.6608 12.9472 11.7346 15.6376 4.14032 22.3484C3.14899 23.2237 1.50147 23.0702 0.643722 22.1C-0.266753 21.0711 -0.216366 19.5127 0.82652 18.5659C10.1445 10.1068 23.6646 7.19841 35.6695 10.9458C35.707 10.9575 35.7398 10.9493 35.7679 10.9212C39.0872 7.60658 42.4025 4.29082 45.714 0.973894C46.1601 0.527835 46.5182 0.248951 46.7885 0.137241C48.0072 -0.364282 49.3407 0.574316 49.336 1.88788C49.3336 2.41831 49.1372 2.87843 48.7466 3.26824C33.9079 18.0913 19.0739 32.9183 4.24461 47.7491C3.82667 48.1671 3.48412 48.4295 3.21696 48.5366C1.39366 49.2642 -0.177698 46.9019 1.25071 45.4724C8.19391 38.5198 15.1191 31.5801 22.0264 24.6533Z" fill="#007BC0"/>
<path d="M44.1801 14.8454C45.823 15.8602 47.4467 17.0632 49.0512 18.4545C50.7702 19.945 50.039 22.6038 47.7775 22.9202C46.8881 23.0444 46.2518 22.6378 45.523 22.0156C44.2715 20.9469 42.9494 19.9739 41.5565 19.0966C41.0886 18.8014 40.7702 18.5467 40.6015 18.3326C39.4145 16.8292 40.2605 14.7142 42.0944 14.3146C42.8642 14.147 43.4689 14.406 44.1801 14.8454Z" fill="#007BC0"/>
<path d="M34.2069 26.5341C33.6655 26.274 33.2581 25.9158 32.9847 25.4596C31.9676 23.7582 33.3398 21.5095 35.34 21.7075C35.6736 21.7411 36.1173 21.8978 36.6712 22.1774C38.5718 23.1375 40.2545 24.2714 41.7192 25.5791C43.3925 27.0731 42.4281 29.7659 40.2193 29.951C39.3147 30.0272 38.7769 29.6182 38.0082 28.9878C36.7794 27.9777 35.5123 27.1598 34.2069 26.5341Z" fill="#007BC0"/>
<path d="M28.1477 29.7049C30.1409 30.1209 32.0591 30.9646 33.7102 32.1575C34.1906 32.5043 34.5214 32.8172 34.7027 33.0961C36.0163 35.115 33.9375 37.5805 31.71 36.7614C31.4998 36.6848 31.1987 36.5056 30.8065 36.2236C29.8245 35.5189 28.7418 35.017 27.5583 34.7178C27.0521 34.5901 26.4463 34.4917 26.0256 34.2678C24.0254 33.2015 24.3898 30.1549 26.6221 29.6416C27.0095 29.5526 27.5181 29.5737 28.1477 29.7049Z" fill="#007BC0"/>
<path d="M25.0145 44.945C26.7379 44.945 28.135 43.5479 28.135 41.8246C28.135 40.1012 26.7379 38.7041 25.0145 38.7041C23.2911 38.7041 21.894 40.1012 21.894 41.8246C21.894 43.5479 23.2911 44.945 25.0145 44.945Z" fill="#007BC0"/>
</svg>
