<svg width="39" height="51" viewBox="0 0 39 51" fill="none" xmlns="http://www.w3.org/2000/svg">
<path d="M27.6492 0H1.32691C0.59407 0 0 0.59407 0 1.74684V49.8837C0 50.1966 0.59407 50.7907 1.32691 50.7907H37.6731C38.4059 50.7907 39 50.1966 39 49.8837V11.7707C39 11.1395 38.9157 10.9363 38.7669 10.7867L28.2133 0.233093C28.0637 0.0843488 27.8605 0 27.6492 0Z" fill="#E9E9E0"/>
<path d="M28.1162 0.137207V10.884H38.863L28.1162 0.137207Z" fill="#D9D7CA"/>
<path d="M11.8034 30.2243C11.4878 30.2243 11.1848 30.1218 10.9264 29.9286C9.98219 29.2203 9.85522 28.4321 9.91508 27.8952C10.0801 26.4186 11.9059 24.8732 15.3433 23.2986C16.7074 20.3092 18.0053 16.626 18.779 13.5486C17.8738 11.5787 16.994 9.02283 17.6353 7.5236C17.8602 6.99846 18.1404 6.59576 18.6638 6.42162C18.8706 6.35269 19.393 6.26562 19.5853 6.26562C20.0424 6.26562 20.4442 6.85425 20.729 7.21704C20.9965 7.55807 21.6033 8.28093 20.3907 13.3863C21.6133 15.9113 23.3456 18.4835 25.0054 20.2449C26.1944 20.0299 27.2175 19.9202 28.051 19.9202C29.4713 19.9202 30.332 20.2512 30.683 20.9333C30.9733 21.4974 30.8545 22.1568 30.3293 22.8923C29.8241 23.5989 29.1276 23.9725 28.3158 23.9725C27.2129 23.9725 25.9287 23.276 24.4965 21.9001C21.9234 22.4379 18.9186 23.3975 16.4898 24.4596C15.7315 26.0686 15.005 27.3646 14.3284 28.3151C13.3988 29.6166 12.597 30.2243 11.8034 30.2243ZM14.2178 25.5752C12.2796 26.6644 11.4896 27.5596 11.4324 28.0639C11.4234 28.1473 11.3989 28.3668 11.8234 28.6915C11.9585 28.6489 12.7476 28.2888 14.2178 25.5752ZM26.5862 21.5464C27.3254 22.115 27.5059 22.4026 27.9893 22.4026C28.2015 22.4026 28.8065 22.3935 29.0868 22.0026C29.2219 21.813 29.2745 21.6915 29.2954 21.6262C29.1838 21.5672 29.036 21.4475 28.2297 21.4475C27.7716 21.4484 27.1957 21.4684 26.5862 21.5464ZM19.8111 15.5766C19.1626 17.8205 18.3064 20.243 17.3858 22.437C19.2814 21.7015 21.3421 21.0593 23.2776 20.6049C22.0531 19.1828 20.8296 17.4069 19.8111 15.5766ZM19.2606 7.90181C19.1717 7.93174 18.0543 9.49537 19.3476 10.8186C20.2084 8.90039 19.2996 7.88911 19.2606 7.90181Z" fill="#CC4B4C"/>
<path d="M37.6731 50.7907H1.32691C0.59407 50.7907 0 50.1966 0 49.4638V35.3721H39V49.4638C39 50.1966 38.4059 50.7907 37.6731 50.7907Z" fill="#CC4B4C"/>
<path d="M9.8725 48.0703H8.38416V38.9316H11.0126C11.4008 38.9316 11.7853 38.9933 12.1653 39.1176C12.5454 39.2418 12.8864 39.4278 13.1884 39.6754C13.4904 39.923 13.7344 40.2232 13.9203 40.5742C14.1063 40.9252 14.1997 41.3197 14.1997 41.7587C14.1997 42.2222 14.1208 42.6412 13.9639 43.0176C13.807 43.394 13.5875 43.7105 13.3063 43.9663C13.0252 44.222 12.6859 44.4207 12.2896 44.5612C11.8932 44.7018 11.4543 44.7717 10.9754 44.7717H9.8716L9.8725 48.0703ZM9.8725 40.0599V43.6806H11.2366C11.418 43.6806 11.5976 43.6497 11.7762 43.5872C11.954 43.5255 12.1173 43.4239 12.266 43.2833C12.4148 43.1427 12.5345 42.9468 12.6252 42.6947C12.7159 42.4425 12.7612 42.1305 12.7612 41.7587C12.7612 41.6099 12.7404 41.4376 12.6996 41.2444C12.6578 41.0503 12.5735 40.8644 12.4456 40.6866C12.3168 40.5089 12.1372 40.3601 11.9059 40.2404C11.6747 40.1207 11.3681 40.0608 10.9881 40.0608L9.8725 40.0599Z" fill="white"/>
<path d="M23.3265 43.247C23.3265 43.9989 23.2458 44.642 23.0843 45.1753C22.9229 45.7086 22.7188 46.1548 22.4703 46.5149C22.2218 46.8749 21.9434 47.1579 21.6332 47.3647C21.323 47.5715 21.0237 47.7257 20.7344 47.83C20.445 47.9334 20.1802 47.9996 19.9408 48.0286C19.7013 48.0558 19.5235 48.0703 19.4075 48.0703H15.9482V38.9316H18.7009C19.47 38.9316 20.1457 39.0541 20.728 39.2972C21.3103 39.5402 21.7946 39.8658 22.1792 40.2703C22.5637 40.6749 22.8503 41.1365 23.0408 41.6526C23.2313 42.1695 23.3265 42.701 23.3265 43.247ZM18.9122 46.9792C19.9208 46.9792 20.6482 46.6573 21.0944 46.0124C21.5407 45.3675 21.7638 44.4334 21.7638 43.2098C21.7638 42.8298 21.7184 42.4534 21.6277 42.0816C21.5361 41.7097 21.3611 41.3732 21.1008 41.0712C20.8405 40.7692 20.4868 40.5252 20.0405 40.3393C19.5943 40.1533 19.0156 40.0599 18.3046 40.0599H17.4366V46.9792H18.9122Z" fill="white"/>
<path d="M26.9971 40.0599V42.9369H30.8164V43.9536H26.9971V48.0703H25.4843V38.9316H31.2V40.0599H26.9971Z" fill="white"/>
</svg>
