<svg width="30" height="25" viewBox="0 0 30 25" fill="none" xmlns="http://www.w3.org/2000/svg">
<path d="M24.3027 13.5133C24.3027 12.534 24.3463 11.6877 25.0593 10.0853C25.8353 8.337 30 6.12467 30 4.52134C30 2.99834 29.87 2.04967 29.0947 1.958C28.7017 1.743 27.3793 2.86267 26.8483 3.33634C26.708 3.46234 26.1537 2.302 26.109 2.23067C25.858 1.82467 25.4797 1.50867 25.0727 1.25C23.126 0.0126696 19.8297 0.314669 18.1117 1.87867C17.0533 2.842 16.4767 4.29067 16.3897 5.70367C16.3833 5.799 16.38 5.895 16.38 5.99034C16.38 7.04734 16.448 7.60667 16.7207 8.334C17.2083 9.63734 18.5463 10.981 20.0013 11.061C21.016 11.1167 22.0773 10.7337 22.0773 9.59567C22.0773 8.656 21.5267 8.195 20.943 7.70667C20.4503 7.29267 19.9407 6.865 19.9407 6.16834V4.166C20.431 5.086 20.8157 6.206 21.6293 6.88734C22.269 7.42434 23.1453 8.15734 23.1453 9.59567C23.1453 11.324 21.7133 11.9007 20.2223 12.0757C18.38 12.2927 17.2527 10.789 16.1963 9.51067C16.1823 9.49267 14.7483 9.83334 14.6127 9.85567C13.7337 9.999 12.8607 10.0547 11.9713 10.099C8.218 10.2847 2.41267 9.45567 1.51333 4.87734C1.21067 3.341 2.72333 1.73534 3.17767 1.27467C3.44767 1.002 3.44833 0.564003 3.19433 0.267669C2.919 -0.0549972 2.428 -0.0939972 2.11767 0.194669C1.51667 0.75067 0 2.65567 0 5.05567C0 7.93067 1.692 9.728 2.53433 10.4443C2.82933 10.6947 3.01767 11.048 3.047 11.4333L3.60467 18.672C3.63467 19.0573 3.58433 19.444 3.46067 19.8083L3.08933 20.9C2.98767 21.1963 2.93767 21.5057 2.93767 21.818V24.2397C2.93767 24.6333 3.25567 24.952 3.65 24.952H5.78633C5.78633 24.952 5.97767 24.466 5.78633 24.2397C5.41367 23.8003 5.07433 23.5277 5.07433 23.5277V22.8153L8.832 19.4367C8.96333 19.3197 9.13167 19.2543 9.30767 19.2543H10.0593H20.9603C21.2573 19.2543 21.523 19.4393 21.6267 19.717L22.896 23.1033C23.3133 24.216 24.3767 24.952 25.564 24.952H27.1517V24.8727C27.1517 24.3983 26.9167 23.9533 26.5223 23.689C26.1503 23.4387 25.66 23.105 25.1933 22.771C24.258 22.1033 24.3033 19.2547 24.3033 19.2547V13.5133H24.3027ZM23.2343 4.299C23.2343 3.709 23.7123 3.23067 24.3027 3.23067C24.8917 3.23067 25.371 3.709 25.371 4.299C25.371 4.88934 24.8917 5.36734 24.3027 5.36734C23.7123 5.367 23.2343 4.88934 23.2343 4.299Z" fill="#18A0E0"/>
<path d="M7.21069 22.8154C7.21069 23.9957 8.16703 24.9521 9.34736 24.9521H11.484L11.4854 24.8657C11.4994 24.0861 10.8387 23.4644 10.061 23.5277H10.0597V19.2544L7.21103 22.1031L7.21069 22.8154Z" fill="#18A0E0"/>
<path d="M21.4541 19.9666H18.6055V22.2076C18.6055 23.0162 19.0625 23.7562 19.7858 24.1179L20.4238 24.4366C20.8965 24.6736 21.7791 24.8912 21.4545 24.2396C20.9291 23.1899 20.4408 22.3839 21.4541 19.9666Z" fill="#18A0E0"/>
</svg>
