<svg width="30" height="25" viewBox="0 0 30 25" fill="none" xmlns="http://www.w3.org/2000/svg">
<path d="M0 24.1066V5.87339C0.0796875 5.47651 0.285352 5.2103 0.616992 5.07476C0.748242 5.02124 0.946289 4.99468 1.21113 4.99507C2.12871 4.99585 3.04707 4.99565 3.96621 4.99448C3.98613 4.99448 3.99629 4.98452 3.99668 4.9646C4.00098 4.62085 4.00527 4.27964 4.00957 3.94097C4.04473 1.37983 6.52383 -0.15005 8.86172 0.0116685C10.7666 0.143504 12.5461 1.37456 12.9322 3.30698C13.0318 3.8062 13.0025 4.42261 12.9979 4.97222C12.9978 4.97802 13.0001 4.9836 13.0042 4.98776C13.0082 4.99192 13.0137 4.99433 13.0195 4.99448C13.7512 4.99604 14.485 4.99585 15.2209 4.9939C15.5209 4.99311 15.7408 5.02007 15.8807 5.07476C16.1518 5.18101 16.3348 5.36987 16.4297 5.64136C16.4777 5.77808 16.5014 6.02378 16.5006 6.37847C16.4982 8.07808 16.498 9.77573 16.5 11.4714C16.5 11.4781 16.4973 11.4845 16.4926 11.4893C16.4879 11.494 16.4815 11.4966 16.4748 11.4966C15.5803 11.4951 14.6846 11.4953 13.7877 11.4972C13.3904 11.4984 13.0982 11.5273 12.9111 11.5839C12.2672 11.7796 11.7434 12.3193 11.5688 12.9732C11.523 13.1439 11.5002 13.4228 11.5002 13.8099C11.4994 17.1998 11.4998 20.5896 11.5014 23.9794C11.5014 24.3345 11.5865 24.6646 11.7568 24.9697C11.7581 24.9721 11.7588 24.9749 11.7587 24.9777C11.7586 24.9805 11.7579 24.9832 11.7565 24.9856C11.7551 24.988 11.7531 24.99 11.7507 24.9914C11.7483 24.9928 11.7456 24.9936 11.7428 24.9937C8.21934 24.9937 4.70078 24.9937 1.18711 24.9937C0.932813 24.9937 0.74082 24.9669 0.611133 24.9134C0.27793 24.7755 0.0742187 24.5066 0 24.1066ZM6.03105 5.00034L10.9646 4.99214C10.9779 4.99214 10.9905 4.98689 10.9999 4.97755C11.0092 4.96821 11.0145 4.95554 11.0145 4.94233L11.0133 4.11323C11.0128 3.83515 10.9492 3.55989 10.826 3.30318C10.7028 3.04647 10.5225 2.81333 10.2953 2.61708C10.0682 2.42082 9.79862 2.26529 9.50207 2.15937C9.20552 2.05345 8.88778 1.99921 8.56699 1.99975H8.41934C8.09855 2.00029 7.78099 2.0556 7.4848 2.16252C7.1886 2.26943 6.91957 2.42586 6.69307 2.62288C6.46656 2.8199 6.28701 3.05364 6.16468 3.31076C6.04234 3.56788 5.97962 3.84335 5.98008 4.12143L5.98125 4.95054C5.98125 4.95708 5.98254 4.96355 5.98504 4.9696C5.98754 4.97564 5.99121 4.98113 5.99584 4.98575C6.00046 4.99038 6.00595 4.99405 6.012 4.99655C6.01804 4.99905 6.02451 5.00034 6.03105 5.00034ZM5.97598 5.03784H4.02715C4.01938 5.03784 4.01193 5.04093 4.00643 5.04642C4.00094 5.05192 3.99785 5.05937 3.99785 5.06714V8.01616C3.99785 8.28671 4.1036 8.54619 4.29183 8.73749C4.48006 8.9288 4.73536 9.03628 5.00156 9.03628C5.26776 9.03628 5.52306 8.9288 5.71129 8.73749C5.89953 8.54619 6.00527 8.28671 6.00527 8.01616V5.06714C6.00527 5.05937 6.00219 5.05192 5.99669 5.04642C5.9912 5.04093 5.98375 5.03784 5.97598 5.03784ZM12.9744 5.03784H11.0268C11.019 5.03784 11.0115 5.04093 11.006 5.04642C11.0005 5.05192 10.9975 5.05937 10.9975 5.06714V8.01851C10.9975 8.28844 11.1031 8.54731 11.2911 8.73818C11.4791 8.92905 11.7341 9.03628 12 9.03628H12.0012C12.2671 9.03628 12.5221 8.92905 12.7101 8.73818C12.8981 8.54731 13.0037 8.28844 13.0037 8.01851V5.06714C13.0037 5.05937 13.0006 5.05192 12.9951 5.04642C12.9896 5.04093 12.9822 5.03784 12.9744 5.03784Z" fill="#E35024"/>
<path d="M30.0001 13.8902V24.1107C29.8728 24.7002 29.5017 24.9947 28.8868 24.9943C23.9888 24.9932 19.0905 24.9932 14.1921 24.9943C13.9437 24.9943 13.7538 24.968 13.6226 24.9152C13.344 24.8039 13.1583 24.6107 13.0653 24.3357C13.0204 24.2033 12.9981 23.9529 12.9985 23.5846C13.0005 20.5541 13.0005 17.5234 12.9985 14.4926C12.9981 14.0379 13.029 13.7355 13.0911 13.5855C13.1903 13.3453 13.3671 13.175 13.6214 13.0746C13.7597 13.0203 13.97 12.9932 14.2524 12.9932C19.0763 12.9936 23.9003 12.9936 28.7245 12.9932C29.0296 12.9932 29.2511 13.0213 29.389 13.0775C29.7206 13.2131 29.9243 13.484 30.0001 13.8902ZM21.7366 19.0242C20.6421 19.1689 19.6642 18.358 19.5189 17.2857C19.4761 16.9688 19.5019 16.5334 19.4989 16.1654C19.497 15.9221 19.4749 15.7438 19.4327 15.6305C19.1192 14.7885 17.9192 14.8072 17.5882 15.5865C17.5323 15.7178 17.5036 15.907 17.5021 16.1543C17.4985 16.6594 17.4769 17.2195 17.5524 17.6795C17.8425 19.4473 19.2833 20.8236 21.0651 21.0117C23.1194 21.2291 25.0038 19.8633 25.4169 17.8459C25.4642 17.6158 25.4925 17.299 25.5019 16.8955C25.5124 16.4467 25.511 16.1273 25.4978 15.9375C25.4222 14.8658 23.9392 14.6367 23.5677 15.641C23.5216 15.766 23.4987 15.959 23.4991 16.2199C23.4997 16.6875 23.5319 17.209 23.4118 17.6104C23.1798 18.382 22.5271 18.9205 21.7366 19.0242Z" fill="#E35024"/>
</svg>
