<svg width="30" height="30" viewBox="0 0 30 30" fill="none" xmlns="http://www.w3.org/2000/svg">
<path d="M14.785 0H15.3105C15.7086 0.0152344 16.1064 0.0408203 16.5041 0.0767578C16.7557 0.0994141 16.9389 0.142969 17.0537 0.207422C17.601 0.515039 17.4352 1.0084 17.5002 1.52344C17.8277 4.11445 20.6467 5.30098 22.7742 3.80859C23.0561 3.61113 23.2805 3.27891 23.5939 3.17227C23.9947 3.03633 24.2566 3.1875 24.5818 3.45938C25.433 4.1707 26.1578 4.91406 26.7563 5.68945C26.9684 5.96406 27.0016 6.25957 26.8559 6.57598C26.7779 6.7459 26.6221 6.8877 26.4902 7.03066C24.5578 9.13066 25.933 12.4014 28.7525 12.5766C29.2441 12.607 29.8477 12.7857 29.9057 13.3746C29.9521 13.8437 29.9836 14.3141 30 14.7855V15.2982C29.9715 16.0428 29.9371 16.5346 29.8969 16.7736C29.8465 17.0709 29.684 17.2813 29.4094 17.4047C29.117 17.5365 28.66 17.4633 28.3881 17.509C26.1152 17.8881 24.8314 20.2143 25.8891 22.3166C26.016 22.5682 26.1518 22.7699 26.2963 22.9219C26.4756 23.11 26.7064 23.315 26.8043 23.5365C26.9391 23.8416 26.8998 24.1303 26.6865 24.4025C26.0846 25.1721 25.3486 25.9117 24.4787 26.6215C24.116 26.9174 23.8213 27.0744 23.39 26.8752C23.2225 26.7984 23.0783 26.6396 22.9348 26.5084C22.3447 25.9717 21.5988 25.6869 20.8008 25.6412C19.2773 25.5539 17.9947 26.5043 17.5242 27.941C17.4428 28.1906 17.3924 28.4689 17.3842 28.7379C17.3777 28.9629 17.3848 29.2061 17.2969 29.4053C17.1684 29.6971 16.9449 29.8652 16.6266 29.9098C16.3711 29.9453 15.9148 29.9754 15.2578 30H14.7305C13.9762 29.9719 13.4748 29.9375 13.2264 29.8969C12.9178 29.8469 12.7031 29.6746 12.5824 29.3801C12.5016 29.1832 12.5156 28.9512 12.5086 28.7314C12.477 27.7629 12.0369 26.85 11.2986 26.2594C10.1145 25.3125 8.51777 25.3225 7.27676 26.1557C6.97324 26.3596 6.72949 26.7152 6.40312 26.8307C6.11172 26.9334 5.8375 26.882 5.58047 26.6766C4.7543 26.0172 3.97559 25.2281 3.24434 24.3094C3.03496 24.0469 2.99766 23.7596 3.13242 23.4475C3.21504 23.2559 3.39023 23.1018 3.53555 22.9406C5.3959 20.877 4.06992 17.5324 1.25215 17.4187C0.755274 17.3988 0.178711 17.2084 0.0908203 16.6406C0.0560547 16.4133 0.0257812 15.9377 0 15.2139V14.7152C0.0199219 14.1 0.0546875 13.6143 0.104297 13.258C0.15 12.9299 0.313281 12.7066 0.594141 12.5883C0.833789 12.4875 1.20176 12.515 1.46484 12.4816C3.2291 12.2578 4.55625 10.8756 4.47891 9.05215C4.45 8.3709 4.21563 7.74199 3.77578 7.16543C3.61055 6.94863 3.2877 6.70781 3.18281 6.42773C3.03164 6.02637 3.18223 5.75273 3.45645 5.42344C4.19512 4.53437 4.95605 3.79453 5.73926 3.20391C5.97988 3.02227 6.23965 2.98203 6.51855 3.0832C6.8373 3.19922 7.0623 3.52969 7.35176 3.72891C8.02402 4.19219 8.7668 4.40391 9.58008 4.36406C11.2412 4.2832 12.5355 2.87285 12.6158 1.22402C12.6258 1.01133 12.6152 0.791016 12.6979 0.601758C12.8275 0.305273 13.0527 0.13457 13.3734 0.0896484C13.625 0.0544922 14.0955 0.0246094 14.785 0ZM8.8582 11.8611C9.14648 11.6385 9.45645 11.7516 9.69199 11.9877C10.0783 12.3752 10.8691 13.1615 12.0645 14.3467C12.1625 14.4436 12.2619 14.4891 12.3627 14.4832C12.8947 14.4527 13.507 14.3629 14.1996 14.2137C14.2986 14.192 14.3555 14.1604 14.3771 14.0613C14.5123 13.448 14.6059 12.8281 14.6578 12.2016C14.6672 12.0879 14.6477 12.0068 14.5992 11.9584C13.768 11.1244 12.9387 10.2887 12.1113 9.45117C11.7686 9.10371 11.9338 8.57227 12.3826 8.45977C16.6605 7.38984 20.3051 11.4961 18.6516 15.6111C18.6422 15.6346 18.6463 15.6553 18.6639 15.6732L22.4068 19.4156C22.409 19.4178 22.4116 19.4195 22.4146 19.4206C22.4175 19.4216 22.4206 19.4219 22.4237 19.4215C22.4268 19.4211 22.4297 19.42 22.4323 19.4183C22.4348 19.4165 22.437 19.4142 22.4385 19.4115C23.4611 17.6455 23.8318 15.7619 23.5506 13.7607C23.0209 9.99727 19.9793 6.93809 16.1947 6.44238C14.2256 6.18457 12.3877 6.54219 10.6811 7.51523C8.38301 8.82598 6.75996 11.2324 6.43359 13.865C6.1918 15.8182 6.55449 17.6398 7.52168 19.3301C8.83418 21.624 11.226 23.2307 13.8539 23.5652C15.9203 23.8281 17.8467 23.4066 19.633 22.3008C19.6354 22.2992 19.6375 22.2972 19.6391 22.2947C19.6406 22.2923 19.6416 22.2895 19.6419 22.2867C19.6422 22.2838 19.6419 22.2809 19.641 22.2782C19.6401 22.2754 19.6385 22.273 19.6365 22.2709L15.8455 18.4775C15.8398 18.4716 15.8324 18.4676 15.8244 18.4659C15.8163 18.4642 15.808 18.465 15.8004 18.4682C11.6795 20.1305 7.58613 16.4895 8.63555 12.2174C8.67266 12.0658 8.74687 11.9471 8.8582 11.8611Z" fill="#66A38F"/>
</svg>
