<svg width="17" height="17" viewBox="0 0 17 17" fill="none" xmlns="http://www.w3.org/2000/svg">
<path d="M12.6923 10.1434C12.5088 10.3212 12.4245 10.5783 12.4663 10.8305L13.096 14.3155C13.1491 14.6108 13.0245 14.9097 12.7773 15.0805C12.535 15.2575 12.2127 15.2788 11.9485 15.1371L8.81129 13.5009C8.70221 13.4428 8.58109 13.4116 8.45713 13.4081H8.26517C8.19859 13.418 8.13342 13.4392 8.07392 13.4718L4.936 15.1159C4.78088 15.1938 4.60521 15.2214 4.43309 15.1938C4.01375 15.1145 3.73396 14.715 3.80267 14.2935L4.43309 10.8085C4.47488 10.5542 4.39059 10.2957 4.20713 10.115L1.64934 7.63587C1.43542 7.42833 1.36104 7.11667 1.45879 6.83546C1.55371 6.55496 1.79596 6.35025 2.0885 6.30421L5.60892 5.7935C5.87667 5.76587 6.11184 5.60296 6.23225 5.36212L7.7835 2.18171C7.82034 2.11087 7.86779 2.04571 7.92517 1.99046L7.98892 1.94087C8.02221 1.90404 8.06046 1.87358 8.10296 1.84879L8.18017 1.82046L8.30059 1.77087H8.59879C8.86513 1.7985 9.09959 1.95787 9.22213 2.19587L10.7939 5.36212C10.9073 5.59375 11.1275 5.75454 11.3818 5.7935L14.9023 6.30421C15.1998 6.34671 15.4484 6.55212 15.5468 6.83546C15.6396 7.1195 15.5596 7.43117 15.3414 7.63587L12.6923 10.1434Z" fill="#EAB04B"/>
</svg>
