<svg width="40" height="25" viewBox="0 0 40 25" fill="none" xmlns="http://www.w3.org/2000/svg">
<path d="M0 19.2748C0 19.6081 0.266667 19.8748 0.6 19.8748H3.75833C3.825 19.4581 3.93333 19.0498 4.09167 18.6748H0.6C0.266667 18.6748 0 18.9415 0 19.2748Z" fill="#803500"/>
<path d="M8.9251 24.2914C10.9001 24.2914 12.5084 22.6831 12.5084 20.7081C12.5084 18.7331 10.9001 17.1331 8.9251 17.1331C7.94176 17.1331 7.0501 17.5331 6.4001 18.1831C5.7501 18.8247 5.3501 19.7247 5.3501 20.7081C5.3501 22.6831 6.95843 24.2914 8.9251 24.2914Z" fill="#803500"/>
<path d="M8.92493 15.4667C10.3749 15.4667 11.6916 16.0583 12.6416 17.0083H23.6249V0H1.3916V17.0083H5.2166C6.1666 16.0583 7.47493 15.4667 8.92493 15.4667ZM7.2666 2.5H10.3666V6.19833V6.65L12.4499 5.7L14.5416 6.65V6.19833V2.5H17.6416V12.8833H7.2666V2.5Z" fill="#803500"/>
<path d="M14.1 19.8748H25.9583C26.025 19.4581 26.1416 19.0498 26.3 18.6748H13.7583C13.925 19.0498 14.0333 19.4581 14.1 19.8748Z" fill="#803500"/>
<path d="M38.6417 17.0082V8.8249L33.3417 4.0249H25.2917V17.0082H27.4251C28.3751 16.0582 29.6834 15.4666 31.1334 15.4666C32.5834 15.4666 33.8917 16.0582 34.8417 17.0082H38.6417ZM27.7917 11.7666V5.69157H31.8667L36.1417 9.56657V11.7666H27.7917Z" fill="#803500"/>
<path d="M39.3999 19.8748C39.7332 19.8748 39.9999 19.6081 39.9999 19.2748C39.9999 18.9415 39.7332 18.6748 39.3999 18.6748H35.9666C36.1249 19.0498 36.2416 19.4581 36.3082 19.8748H39.3999Z" fill="#803500"/>
<path d="M34.7083 20.7164V20.6997C34.7 18.7331 33.1 17.1331 31.1333 17.1331C29.1667 17.1331 27.5667 18.7331 27.5583 20.6997V20.7164C27.5583 22.6914 29.1667 24.2914 31.1333 24.2914C33.1 24.2914 34.7083 22.6914 34.7083 20.7164Z" fill="#803500"/>
</svg>
