<svg width="26" height="25" viewBox="0 0 26 25" fill="none" xmlns="http://www.w3.org/2000/svg">
<path d="M21.8922 3.18864L15.944 6.33913L13.9444 15.3138C13.8716 15.6505 13.6853 15.952 13.4168 16.1678C13.1483 16.3837 12.8138 16.5008 12.4693 16.4996H10.9592C10.7462 16.4991 10.5358 16.4538 10.3415 16.3664C10.1473 16.2791 9.9737 16.1518 9.83207 15.9927C9.69044 15.8337 9.58397 15.6465 9.51962 15.4435C9.45528 15.2405 9.4345 15.0262 9.45866 14.8146L10.0945 9.45784L4.33712 12.5098C3.91795 12.72 3.43563 12.7671 2.98372 12.6418C2.53182 12.5166 2.14255 12.2279 1.89145 11.8319C1.64035 11.4358 1.54532 10.9606 1.6248 10.4984C1.70427 10.0363 1.95259 9.6201 2.32157 9.33068L0.732013 8.63763C0.570034 8.56719 0.42532 8.46235 0.307913 8.33038C0.190505 8.19841 0.103215 8.04248 0.0520995 7.87341C0.000983555 7.70433 -0.0127345 7.52616 0.0118973 7.35125C0.0365292 7.17635 0.098921 7.00889 0.194744 6.86051L0.763804 5.97672C0.905902 5.7518 1.11759 5.57945 1.36665 5.48591C1.61571 5.39237 1.88851 5.38275 2.14354 5.45852L5.51021 6.54896L17.3047 0.826561C17.9883 0.497832 18.7589 0.395388 19.5046 0.534083L21.5297 0.912397C21.7789 0.957295 22.008 1.07858 22.1852 1.25944C22.3625 1.44031 22.4791 1.67181 22.5189 1.92188C22.5587 2.17195 22.5198 2.42821 22.4075 2.65518C22.2952 2.88214 22.1151 3.06857 21.8922 3.18864ZM23.1066 6.24694C22.9911 6.12384 22.8314 6.05167 22.6627 6.0463C22.4939 6.04094 22.33 6.10282 22.2069 6.21833C22.0838 6.33384 22.0116 6.49352 22.0062 6.66225C22.0009 6.83097 22.0628 6.99492 22.1783 7.11802C23.3139 8.331 24.1091 9.82226 24.4837 11.4411C24.8583 13.0599 24.7988 14.7489 24.3115 16.3374C23.0716 15.5299 23.0748 14.5921 23.0811 13.6797C23.0811 12.8881 23.097 11.8008 21.8635 11.4321C20.3408 10.9743 19.9561 12.0679 19.7812 12.5193C19.6064 12.9708 19.5873 13.0566 19.0564 12.939C18.8316 12.8682 18.5943 12.8461 18.3602 12.8741C18.1262 12.902 17.9008 12.9794 17.6989 13.1011C17.1775 13.4635 17.0885 14.1121 16.9963 14.7956C16.8723 15.6984 16.7197 16.8175 15.6929 17.9015C14.8727 18.7631 14.8504 19.5769 14.9776 20.1047C15.2478 21.2619 16.4718 22.1584 17.5209 22.7274C15.0936 23.3172 12.5315 22.92 10.3967 21.6232C8.26189 20.3263 6.72863 18.2356 6.13332 15.8097C6.11349 15.7285 6.07786 15.652 6.02846 15.5846C5.97907 15.5171 5.91687 15.4601 5.84543 15.4167C5.77399 15.3733 5.6947 15.3444 5.61209 15.3316C5.52949 15.3189 5.44517 15.3225 5.36397 15.3424C5.28277 15.3622 5.20627 15.3978 5.13884 15.4472C5.07141 15.4966 5.01437 15.5588 4.97097 15.6303C4.92758 15.7017 4.89868 15.781 4.88592 15.8636C4.87317 15.9462 4.87681 16.0305 4.89664 16.1117C5.28458 17.7025 6.03231 19.1831 7.08228 20.4395C8.13225 21.696 9.45648 22.6948 10.9531 23.3592C12.4497 24.0235 14.0787 24.3356 15.7149 24.2715C17.351 24.2075 18.9507 23.7689 20.3907 22.9895C21.8308 22.2102 23.0728 21.1108 24.0213 19.7761C24.9698 18.4414 25.5994 16.9068 25.8617 15.2906C26.1241 13.6743 26.0121 12.0194 25.5344 10.4532C25.0568 8.88702 24.2262 7.45128 23.1066 6.25648V6.24694ZM4.01285 3.36031L6.21597 4.79409L11.8048 2.08867L5.99662 0.0826501C5.74366 -0.00456814 5.4721 -0.0231557 5.20962 0.0287823C4.94713 0.0807203 4.70311 0.201327 4.50243 0.378307L3.83482 0.963263C3.66058 1.11747 3.52433 1.30987 3.43671 1.52542C3.34909 1.74098 3.31246 1.97387 3.3297 2.20591C3.34693 2.43796 3.41756 2.66288 3.53606 2.86313C3.65456 3.06338 3.81774 3.23353 4.01285 3.36031Z" fill="#F98419"/>
</svg>
