<svg width="22" height="21" viewBox="0 0 22 21" fill="none" xmlns="http://www.w3.org/2000/svg">
<g id="Group 3084">
<path id="Vector" d="M17.4499 0.000130654H4.54969C3.52428 0.000562263 2.54091 0.407974 1.81586 1.13326C1.0908 1.85832 0.683168 2.84169 0.682726 3.86709V16.7673C0.679274 17.2109 0.757822 17.6516 0.914915 18.0666C0.912757 18.0836 0.918368 18.1007 0.930236 18.113C0.944263 18.162 0.965194 18.209 0.992168 18.2522C1.28457 18.9556 1.7781 19.557 2.41101 19.9809C3.04415 20.4045 3.7882 20.6319 4.54972 20.6343H15.4082C15.3145 20.3872 15.2672 20.125 15.269 19.8609V19.0875H4.54975C3.7673 19.0927 3.03705 18.6954 2.61627 18.0357L11.6186 10.7968V10.7966C12.0279 10.4593 12.5419 10.2746 13.0725 10.2746C13.6031 10.2746 14.1172 10.4593 14.5265 10.7966L16.0424 12.0186C16.3124 11.8917 16.5987 11.8032 16.893 11.7557C17.1177 11.6819 17.3527 11.6455 17.5892 11.6474C17.8307 11.6444 18.0711 11.6809 18.3007 11.7557C19.1507 11.8984 19.9232 12.3364 20.4816 12.9931L21.317 13.9984V3.86696C21.3165 2.84156 20.9089 1.85819 20.1838 1.13313C19.4588 0.407854 18.4754 0.000441939 17.45 0L17.4499 0.000130654ZM6.88534 8.98695H6.88512C6.22674 8.98501 5.59599 8.72132 5.13184 8.25433C4.66769 7.78735 4.40805 7.1549 4.41004 6.49652C4.41199 5.83814 4.67568 5.20738 5.14267 4.74324C5.60985 4.27908 6.2421 4.01945 6.90048 4.02144C7.55908 4.0236 8.18984 4.28708 8.65376 4.75429C9.11792 5.22126 9.37754 5.85372 9.37556 6.5121C9.37275 7.17026 9.10884 7.80057 8.6421 8.26455C8.17514 8.7285 7.54328 8.9885 6.88512 8.98723L6.88534 8.98695ZM21.1368 16.1917H21.1365C21.4106 16.5194 21.367 17.0076 21.039 17.2816C20.7112 17.5556 20.2233 17.5118 19.9492 17.1841L18.3662 15.2907V19.8644C18.3662 20.2917 18.0199 20.6378 17.5928 20.6378C17.1658 20.6378 16.8194 20.2917 16.8194 19.8644V15.2892L15.2349 17.1843C14.9608 17.5121 14.4729 17.5557 14.1451 17.2817C13.8171 17.0076 13.7735 16.5197 14.0476 16.1919L15.8934 13.9841C16.3267 13.5025 16.9441 13.2274 17.5921 13.2274C18.24 13.2274 18.8573 13.5025 19.2906 13.9841L21.1368 16.1917ZM20.5433 19.0084H20.6053H20.6048C20.4057 19.2848 20.1718 19.5342 19.9089 19.7509V18.9156C20.1146 18.9777 20.3282 19.009 20.5431 19.0086L20.5433 19.0084Z" fill="black"/>
</g>
</svg>
