<svg width="26" height="26" viewBox="0 0 26 26" fill="none" xmlns="http://www.w3.org/2000/svg">
<path d="M4.00917 5.10877C2.65899 5.7996 1.02079 5.31297 0.318274 3.96127C-0.373578 2.62989 0.162836 0.983054 1.48914 0.298314C2.2577 -0.098409 3.17305 -0.0923134 3.94567 0.285615C5.21712 0.908383 5.80992 2.49934 5.21102 3.80989C5.18291 3.87153 5.15413 3.93316 5.12467 3.9948C5.12124 4.00208 5.12013 4.01021 5.1215 4.01805C5.12287 4.02588 5.12664 4.03303 5.13229 4.03848L8.72057 7.62676C8.7225 7.62864 8.72396 7.63093 8.72484 7.63347C8.72573 7.636 8.72601 7.63871 8.72566 7.64137C8.72532 7.64403 8.72436 7.64658 8.72286 7.6488C8.72135 7.65103 8.71935 7.65288 8.71702 7.6542L7.40443 8.41208C7.38241 8.42495 7.36227 8.42224 7.34398 8.40396L4.0559 5.11639C4.04236 5.1025 4.02678 5.09996 4.00917 5.10877Z" fill="#01A8A6"/>
<path d="M12.2056 2.92636L11.4462 3.68679C11.443 3.69001 11.4386 3.69183 11.434 3.69183C11.4294 3.69183 11.4251 3.69001 11.4218 3.68679L10.3688 2.63326C10.3656 2.63003 10.3638 2.62564 10.3638 2.62107C10.3638 2.6165 10.3656 2.61212 10.3688 2.60888L12.9737 0.00503742C12.9769 0.00181141 12.9813 0 12.9859 0C12.9904 0 12.9948 0.00181141 12.998 0.00503742L15.6014 2.60837C15.6046 2.61161 15.6064 2.61599 15.6064 2.62056C15.6064 2.62513 15.6046 2.62952 15.6014 2.63276L14.5494 3.68526C14.5461 3.68849 14.5418 3.6903 14.5372 3.6903C14.5326 3.6903 14.5282 3.68849 14.525 3.68526L13.7879 2.9477C13.7855 2.94529 13.7824 2.94365 13.7791 2.94299C13.7758 2.94232 13.7723 2.94267 13.7691 2.94397C13.766 2.94527 13.7633 2.94748 13.7614 2.95031C13.7595 2.95315 13.7585 2.95648 13.7585 2.95989L13.758 5.57846C13.758 5.58152 13.7573 5.58453 13.7558 5.5872C13.7543 5.58986 13.7521 5.59208 13.7495 5.59363C13.7468 5.59518 13.7438 5.596 13.7408 5.59602C13.7377 5.59603 13.7347 5.59523 13.7321 5.5937L13.0174 5.18072C13.0147 5.17921 13.0117 5.17841 13.0087 5.17841C13.0057 5.17841 13.0027 5.17921 13.0001 5.18072L12.261 5.60792C12.2583 5.60945 12.2553 5.61025 12.2523 5.61024C12.2492 5.61023 12.2462 5.6094 12.2436 5.60785C12.241 5.6063 12.2388 5.60408 12.2373 5.60142C12.2358 5.59875 12.235 5.59574 12.2351 5.59268V2.93855C12.2351 2.93514 12.2341 2.93181 12.2322 2.92898C12.2303 2.92615 12.2276 2.92394 12.2244 2.92264C12.2213 2.92133 12.2178 2.92099 12.2145 2.92165C12.2111 2.92232 12.208 2.92395 12.2056 2.92636Z" fill="#01A8A6"/>
<path d="M26.0001 2.61657V2.81925C25.9239 3.75154 25.5287 4.46184 24.8145 4.95017C23.9632 5.5323 22.9239 5.57396 21.9963 5.10662C21.9831 5.09985 21.9713 5.10171 21.9608 5.11221L18.664 8.40943C18.6508 8.42264 18.6363 8.4245 18.6204 8.41502L17.2976 7.65053C17.2956 7.64945 17.2938 7.64791 17.2925 7.64604C17.2912 7.64417 17.2903 7.64201 17.29 7.63974C17.2896 7.63747 17.2898 7.63515 17.2905 7.63296C17.2912 7.63078 17.2924 7.62879 17.2941 7.62716L20.8844 4.03684C20.8969 4.02431 20.8993 4.01026 20.8915 3.99468C20.4369 3.10625 20.4683 2.10301 20.99 1.26182C21.8866 -0.183353 23.9271 -0.427685 25.1635 0.756388C25.6718 1.24302 25.9507 1.86308 26.0001 2.61657Z" fill="#01A8A6"/>
<path d="M13.0179 6.93925L17.4656 9.50703C17.4683 9.50861 17.4704 9.51084 17.472 9.51351C17.4735 9.51618 17.4743 9.5192 17.4743 9.52227C17.4743 9.52533 17.4735 9.52835 17.472 9.53102C17.4704 9.53369 17.4683 9.53592 17.4656 9.53751L13.0179 12.1048C13.0152 12.1062 13.0123 12.107 13.0092 12.107C13.0062 12.107 13.0032 12.1062 13.0006 12.1048L8.55232 9.53751C8.54969 9.53592 8.54752 9.53369 8.54601 9.53102C8.54449 9.52835 8.5437 9.52533 8.5437 9.52227C8.5437 9.5192 8.54449 9.51618 8.54601 9.51351C8.54752 9.51084 8.54969 9.50861 8.55232 9.50703L13.0006 6.93925C13.0032 6.93778 13.0062 6.93701 13.0092 6.93701C13.0123 6.93701 13.0152 6.93778 13.0179 6.93925Z" fill="#01A8A6"/>
<path d="M23.0203 13.7501H19.7932C19.7885 13.7501 19.7839 13.7482 19.7806 13.7449C19.7773 13.7416 19.7754 13.737 19.7754 13.7323L19.7759 12.244C19.7759 12.2393 19.7778 12.2347 19.7811 12.2314C19.7844 12.2281 19.789 12.2262 19.7937 12.2262H23.0279C23.0315 12.2262 23.0349 12.2252 23.0379 12.2233C23.0409 12.2213 23.0432 12.2185 23.0446 12.2153C23.0459 12.212 23.0463 12.2084 23.0456 12.2049C23.0449 12.2014 23.0431 12.1982 23.0406 12.1957L22.2903 11.4465C22.2887 11.4448 22.2873 11.4428 22.2864 11.4407C22.2855 11.4385 22.285 11.4361 22.285 11.4338C22.285 11.4314 22.2855 11.4291 22.2864 11.4269C22.2873 11.4247 22.2887 11.4227 22.2903 11.4211L23.3408 10.3701C23.3425 10.3684 23.3444 10.3671 23.3466 10.3661C23.3488 10.3652 23.3512 10.3647 23.3535 10.3647C23.3559 10.3647 23.3582 10.3652 23.3604 10.3661C23.3626 10.3671 23.3646 10.3684 23.3662 10.3701L25.9696 12.9734C25.9712 12.9751 25.9726 12.977 25.9735 12.9792C25.9744 12.9814 25.9749 12.9838 25.9749 12.9861C25.9749 12.9885 25.9744 12.9908 25.9735 12.993C25.9726 12.9952 25.9712 12.9972 25.9696 12.9988L23.3657 15.6022C23.3641 15.6038 23.3621 15.6052 23.3599 15.6061C23.3577 15.607 23.3554 15.6075 23.353 15.6075C23.3506 15.6075 23.3483 15.607 23.3461 15.6061C23.3439 15.6052 23.342 15.6038 23.3403 15.6022L22.2888 14.5507C22.2871 14.549 22.2858 14.547 22.2849 14.5448C22.284 14.5427 22.2835 14.5403 22.2835 14.538C22.2835 14.5356 22.284 14.5333 22.2849 14.5311C22.2858 14.5289 22.2871 14.5269 22.2888 14.5253L23.0325 13.7806C23.035 13.7781 23.0367 13.775 23.0374 13.7715C23.0382 13.7681 23.0379 13.7645 23.0365 13.7613C23.0352 13.758 23.033 13.7552 23.0301 13.7532C23.0272 13.7512 23.0238 13.7501 23.0203 13.7501Z" fill="#01A8A6"/>
<path d="M2.94943 12.2259H6.22278C6.22498 12.2259 6.22716 12.2264 6.22919 12.2272C6.23123 12.2281 6.23307 12.2293 6.23463 12.2308C6.23619 12.2324 6.23742 12.2342 6.23826 12.2363C6.23911 12.2383 6.23954 12.2405 6.23954 12.2427L6.24005 13.7326C6.24005 13.737 6.23828 13.7413 6.23514 13.7444C6.23199 13.7476 6.22773 13.7493 6.22329 13.7493L2.94638 13.7498C2.94307 13.7498 2.93983 13.7508 2.93706 13.7526C2.93428 13.7544 2.93211 13.757 2.93081 13.76C2.9295 13.763 2.92913 13.7664 2.92973 13.7697C2.93033 13.7729 2.93189 13.7759 2.93419 13.7783L3.68649 14.5296C3.68953 14.5327 3.69124 14.5369 3.69124 14.5413C3.69124 14.5456 3.68953 14.5498 3.68649 14.5529L2.63246 15.6065C2.62933 15.6095 2.62514 15.6112 2.62078 15.6112C2.61641 15.6112 2.61222 15.6095 2.60909 15.6065L0.00474223 13.0016C0.00170122 12.9985 0 12.9943 0 12.9899C0 12.9856 0.00170122 12.9814 0.00474223 12.9782L2.60909 10.3739C2.61222 10.3708 2.61641 10.3691 2.62078 10.3691C2.62514 10.3691 2.62933 10.3708 2.63246 10.3739L3.68548 11.4264C3.68852 11.4295 3.69022 11.4337 3.69022 11.4381C3.69022 11.4424 3.68852 11.4466 3.68548 11.4498L2.93724 12.1975C2.93493 12.1999 2.93338 12.2029 2.93278 12.2061C2.93218 12.2094 2.93255 12.2127 2.93385 12.2158C2.93516 12.2188 2.93733 12.2214 2.9401 12.2232C2.94288 12.225 2.94612 12.226 2.94943 12.2259Z" fill="#01A8A6"/>
<path d="M7.78783 10.8544L12.2376 13.4222C12.2403 13.4236 12.2424 13.4258 12.244 13.4284C12.2455 13.431 12.2463 13.4339 12.2463 13.4369V18.577C12.2462 18.58 12.2454 18.5829 12.2439 18.5854C12.2424 18.588 12.2403 18.5901 12.2377 18.5915C12.2351 18.593 12.2322 18.5937 12.2292 18.5937C12.2263 18.5936 12.2234 18.5928 12.2209 18.5913L7.77107 16.0225C7.76854 16.0209 7.76645 16.0188 7.76503 16.0162C7.7636 16.0136 7.76288 16.0107 7.76294 16.0077V10.8686C7.76302 10.8657 7.76383 10.8629 7.76531 10.8605C7.76679 10.858 7.76888 10.8559 7.77138 10.8545C7.77389 10.8531 7.77671 10.8523 7.7796 10.8523C7.78248 10.8523 7.78531 10.853 7.78783 10.8544Z" fill="#01A8A6"/>
<path d="M13.7774 13.4241L18.2302 10.8543C18.2326 10.853 18.2352 10.8523 18.2379 10.8523C18.2405 10.8523 18.2432 10.853 18.2455 10.8543C18.2478 10.8557 18.2497 10.8576 18.2511 10.8599C18.2524 10.8622 18.2531 10.8649 18.2531 10.8675V16.0102C18.2531 16.0129 18.2524 16.0155 18.2511 16.0178C18.2497 16.0202 18.2478 16.0221 18.2455 16.0234L13.7926 18.5942C13.7903 18.5956 13.7877 18.5963 13.785 18.5963C13.7823 18.5963 13.7797 18.5956 13.7774 18.5942C13.7751 18.5929 13.7731 18.591 13.7718 18.5887C13.7705 18.5863 13.7698 18.5837 13.7698 18.581V13.4374C13.7698 13.4347 13.7705 13.432 13.7718 13.4297C13.7732 13.4274 13.7751 13.4255 13.7774 13.4241Z" fill="#01A8A6"/>
<path d="M4.01728 20.8756C4.02268 20.8785 4.02891 20.8797 4.03504 20.8787C4.04118 20.8778 4.04689 20.8749 4.05132 20.8705L7.35361 17.5687C7.35898 17.5632 7.36601 17.5597 7.37358 17.5586C7.38114 17.5576 7.38879 17.5592 7.39527 17.5631L8.72005 18.3286C8.72194 18.3297 8.72356 18.3312 8.72478 18.333C8.726 18.3348 8.72678 18.3369 8.72708 18.3391C8.72737 18.3412 8.72717 18.3434 8.72648 18.3455C8.72579 18.3476 8.72463 18.3494 8.7231 18.351L5.12821 21.9459C5.12293 21.951 5.11944 21.9576 5.11825 21.9649C5.11706 21.9721 5.11824 21.9795 5.1216 21.986C5.54373 22.7993 5.54779 23.7217 5.13125 24.5314C4.0696 26.5948 1.04211 26.3977 0.200919 24.2582C-0.41677 22.686 0.547353 20.9457 2.19418 20.6084C2.81831 20.4807 3.42601 20.5698 4.01728 20.8756Z" fill="#01A8A6"/>
<path d="M26.0001 23.1407V23.4044C25.9111 24.444 25.4276 25.2 24.5499 25.6725C23.2124 26.3928 21.4782 25.8081 20.8336 24.4411C20.4536 23.6348 20.4738 22.817 20.894 21.9877C20.9015 21.9728 20.8993 21.9596 20.8874 21.948L17.2961 18.3562C17.2941 18.3542 17.2925 18.3518 17.2916 18.3492C17.2906 18.3465 17.2903 18.3436 17.2907 18.3408C17.291 18.338 17.292 18.3353 17.2936 18.333C17.2951 18.3306 17.2972 18.3287 17.2996 18.3272L18.6234 17.5643C18.6297 17.5606 18.6371 17.5592 18.6443 17.5601C18.6516 17.561 18.6583 17.5643 18.6635 17.5694L21.9587 20.865C21.9723 20.8789 21.988 20.8816 22.006 20.8732C22.8929 20.4475 23.8494 20.4358 24.6804 20.9367C25.4827 21.4206 25.9226 22.1553 26.0001 23.1407Z" fill="#01A8A6"/>
<path d="M12.2584 20.3716L13.0016 20.8003C13.004 20.8018 13.0069 20.8026 13.0097 20.8026C13.0126 20.8026 13.0154 20.8018 13.0178 20.8003L13.7341 20.3858C13.7365 20.3844 13.7392 20.3836 13.742 20.3836C13.7449 20.3835 13.7476 20.3843 13.7501 20.3857C13.7525 20.3871 13.7545 20.3891 13.7559 20.3915C13.7573 20.394 13.758 20.3967 13.758 20.3995V23.0242C13.7579 23.0273 13.7589 23.0304 13.7606 23.033C13.7623 23.0356 13.7648 23.0376 13.7677 23.0388C13.7706 23.04 13.7737 23.0403 13.7768 23.0397C13.7799 23.0391 13.7827 23.0376 13.7849 23.0354L14.5306 22.2892C14.532 22.2877 14.5338 22.2865 14.5357 22.2857C14.5376 22.2849 14.5397 22.2845 14.5417 22.2845C14.5438 22.2845 14.5459 22.2849 14.5478 22.2857C14.5497 22.2865 14.5515 22.2877 14.5529 22.2892L15.6059 23.3422C15.6074 23.3437 15.6086 23.3454 15.6094 23.3473C15.6102 23.3492 15.6106 23.3513 15.6106 23.3534C15.6106 23.3554 15.6102 23.3575 15.6094 23.3594C15.6086 23.3613 15.6074 23.3631 15.6059 23.3645L13.0006 25.9704C12.9991 25.9719 12.9974 25.9731 12.9955 25.9739C12.9935 25.9747 12.9915 25.9751 12.9894 25.9751C12.9873 25.9751 12.9853 25.9747 12.9833 25.9739C12.9814 25.9731 12.9797 25.9719 12.9782 25.9704L10.3718 23.3645C10.3704 23.3631 10.3692 23.3613 10.3684 23.3594C10.3676 23.3575 10.3672 23.3554 10.3672 23.3534C10.3672 23.3513 10.3676 23.3492 10.3684 23.3473C10.3692 23.3454 10.3704 23.3437 10.3718 23.3422L11.4259 22.2882C11.4273 22.2867 11.4291 22.2855 11.431 22.2847C11.4329 22.2839 11.435 22.2835 11.437 22.2835C11.4391 22.2835 11.4412 22.2839 11.4431 22.2847C11.445 22.2855 11.4468 22.2867 11.4482 22.2882L12.2081 23.0496C12.2103 23.0518 12.2132 23.0533 12.2162 23.0539C12.2193 23.0546 12.2225 23.0543 12.2254 23.0531C12.2282 23.0519 12.2307 23.0498 12.2324 23.0472C12.2342 23.0446 12.2351 23.0416 12.2351 23.0384V20.3853C12.2351 20.3826 12.2358 20.3799 12.2372 20.3775C12.2385 20.3752 12.2405 20.3732 12.2428 20.3718C12.2452 20.3704 12.2479 20.3697 12.2506 20.3696C12.2533 20.3696 12.256 20.3703 12.2584 20.3716Z" fill="#01A8A6"/>
</svg>
